<?xml version="1.0" encoding="utf-8"?>
<!-- Generator: Adobe Illustrator 17.1.0, SVG Export Plug-In . SVG Version: 6.00 Build 0)  -->
<!DOCTYPE svg PUBLIC "-//W3C//DTD SVG 1.1//EN" "http://www.w3.org/Graphics/SVG/1.1/DTD/svg11.dtd">
<svg version="1.1" id="Layer_1" xmlns="http://www.w3.org/2000/svg" xmlns:xlink="http://www.w3.org/1999/xlink" x="0px" y="0px"
	 viewBox="0 0 600 600" enable-background="new 0 0 600 600" xml:space="preserve">
<path d="M141.5,373.8l130.6,130.9V27.9C272.2,12.5,284.6,0,300,0c15.4,0,27.8,12.5,27.8,27.9v476.8l130.6-130.9
	c10.9-10.9,28.5-10.9,39.4,0c10.9,10.9,10.9,28.6,0,39.5L319.7,591.8c-10.9,10.9-28.5,10.9-39.4,0L102.2,413.3
	c-5.4-5.4-8.2-12.6-8.2-19.7c0-7.1,2.7-14.3,8.2-19.7C113,362.9,130.6,362.9,141.5,373.8z"/>
</svg>
