<?xml version="1.0" encoding="utf-8"?>
<!-- Generator: Adobe Illustrator 17.1.0, SVG Export Plug-In . SVG Version: 6.00 Build 0)  -->
<!DOCTYPE svg PUBLIC "-//W3C//DTD SVG 1.1//EN" "http://www.w3.org/Graphics/SVG/1.1/DTD/svg11.dtd">
<svg version="1.1" id="Layer_1" xmlns="http://www.w3.org/2000/svg" xmlns:xlink="http://www.w3.org/1999/xlink" x="0px" y="0px"
	 viewBox="0 0 600 600" enable-background="new 0 0 600 600" xml:space="preserve">
<path d="M373.8,102.2c5.5-5.4,12.6-8.2,19.7-8.2c7.1,0,14.3,2.7,19.7,8.2l178.6,178.2c10.9,10.9,10.9,28.5,0,39.4L413.3,497.8
	c-10.9,10.9-28.6,10.9-39.5,0c-10.9-10.9-10.9-28.5,0-39.4l130.9-130.6H27.9C12.5,327.8,0,315.4,0,300c0-15.4,12.5-27.8,27.9-27.8
	h476.8L373.8,141.5C362.9,130.6,362.9,113,373.8,102.2z"/>
</svg>
