<?xml version="1.0" encoding="utf-8"?>
<!-- Generator: Adobe Illustrator 17.1.0, SVG Export Plug-In . SVG Version: 6.00 Build 0)  -->
<!DOCTYPE svg PUBLIC "-//W3C//DTD SVG 1.1//EN" "http://www.w3.org/Graphics/SVG/1.1/DTD/svg11.dtd">
<svg version="1.1" id="Layer_1" xmlns="http://www.w3.org/2000/svg" xmlns:xlink="http://www.w3.org/1999/xlink" x="0px" y="0px"
	 viewBox="0 0 600 600" enable-background="new 0 0 600 600" xml:space="preserve">
<path d="M102.2,226.2c-5.4-5.5-8.2-12.6-8.2-19.7c0-7.1,2.7-14.3,8.2-19.7L280.3,8.2c10.9-10.9,28.5-10.9,39.4,0l178.2,178.6
	c10.9,10.9,10.9,28.6,0,39.5c-10.9,10.9-28.5,10.9-39.4,0L327.8,95.3v476.8c0,15.4-12.5,27.9-27.8,27.9c-15.4,0-27.8-12.5-27.8-27.9
	V95.3L141.5,226.2C130.6,237.1,113,237.1,102.2,226.2z"/>
</svg>
