<?xml version="1.0" encoding="utf-8"?>
<!-- Generator: Adobe Illustrator 17.1.0, SVG Export Plug-In . SVG Version: 6.00 Build 0)  -->
<!DOCTYPE svg PUBLIC "-//W3C//DTD SVG 1.1//EN" "http://www.w3.org/Graphics/SVG/1.1/DTD/svg11.dtd">
<svg version="1.1" id="Layer_1" xmlns="http://www.w3.org/2000/svg" xmlns:xlink="http://www.w3.org/1999/xlink" x="0px" y="0px"
	 viewBox="0 0 600 600" enable-background="new 0 0 600 600" xml:space="preserve">
<path d="M226.2,141.5L95.3,272.2h476.8c15.4,0,27.9,12.5,27.9,27.8c0,15.4-12.5,27.8-27.9,27.8H95.3l130.9,130.6
	c10.9,10.9,10.9,28.5,0,39.4c-10.9,10.9-28.6,10.9-39.5,0L8.2,319.7c-10.9-10.9-10.9-28.5,0-39.4l178.6-178.2
	c5.4-5.4,12.6-8.2,19.7-8.2c7.1,0,14.3,2.7,19.7,8.2C237.1,113,237.1,130.6,226.2,141.5z"/>
</svg>
