<?xml version="1.0" encoding="utf-8"?>
<!-- Generator: Adobe Illustrator 17.1.0, SVG Export Plug-In . SVG Version: 6.00 Build 0)  -->
<!DOCTYPE svg PUBLIC "-//W3C//DTD SVG 1.1//EN" "http://www.w3.org/Graphics/SVG/1.1/DTD/svg11.dtd">
<svg version="1.1" id="Layer_1" xmlns="http://www.w3.org/2000/svg" xmlns:xlink="http://www.w3.org/1999/xlink" x="0px" y="0px"
	 viewBox="0 0 600 600" enable-background="new 0 0 600 600" xml:space="preserve">
<path d="M405,370c57.5-35,95-97.5,95-170C500,90,410,0,300,0S100,90,100,200c0,72.5,37.5,135,95,170C95,407.5,20,495,0,600h50
	c25-115,127.5-200,250-200s225,85,250,200h50C580,492.5,505,405,405,370z M150,200c0-82.5,67.5-150,150-150s150,67.5,150,150
	c0,82.5-67.5,150-150,150S150,282.5,150,200z"/>
</svg>
