<?xml version="1.0" encoding="utf-8"?>
<!-- Generator: Adobe Illustrator 17.1.0, SVG Export Plug-In . SVG Version: 6.00 Build 0)  -->
<!DOCTYPE svg PUBLIC "-//W3C//DTD SVG 1.1//EN" "http://www.w3.org/Graphics/SVG/1.1/DTD/svg11.dtd">
<svg version="1.1" id="Layer_1" xmlns="http://www.w3.org/2000/svg" xmlns:xlink="http://www.w3.org/1999/xlink" x="0px" y="0px"
	 viewBox="0 0 600 600" enable-background="new 0 0 600 600" xml:space="preserve">
<path d="M468,1.1c-8.6-3.4-18.9,1.7-21.5,10.2l-9.4,24c-110.7-30-228.2,28.3-268.6,136.2l-55.8,152.5L9.8,371
	c-13.7,6-12.9,25.7,1.7,30.8l185.4,67.7c-7.7,43.7,17.2,87.4,60.1,102.8c42.9,15.4,91-2.6,113.2-40.3l187.1,66.8
	c8.6,3.4,18.9-0.9,22.3-10.3c1.7-5.1,0.9-10.3-1.7-14.6l-47.2-100.2l55.8-152.5c40.3-107.9-12-226.9-116.7-274l8.6-24.8
	C481.7,13.9,477.4,3.6,468,1.1z M269.8,540.6c-25.7-9.4-41.2-33.4-39.5-59.1L338.4,520C323,540.6,294.7,549.1,269.8,540.6z
	 M554.6,310.2l-58.3,158.4c-1.7,4.3-1.7,8.6,0.8,12.8l33.5,71.1l-162.2-57.4l-145-52.3L61.3,384.7l72.1-33.4
	c4.3-1.7,6.8-5.1,8.5-9.4l58.4-158.4C235.5,87.5,343.5,37.9,441.4,72.1C539.2,107.2,589.8,214.3,554.6,310.2z"/>
</svg>
