<?xml version="1.0" encoding="utf-8"?>
<!-- Generator: Adobe Illustrator 17.1.0, SVG Export Plug-In . SVG Version: 6.00 Build 0)  -->
<!DOCTYPE svg PUBLIC "-//W3C//DTD SVG 1.1//EN" "http://www.w3.org/Graphics/SVG/1.1/DTD/svg11.dtd">
<svg version="1.1" id="Layer_1" xmlns="http://www.w3.org/2000/svg" xmlns:xlink="http://www.w3.org/1999/xlink" x="0px" y="0px"
	 viewBox="0 0 600 600" enable-background="new 0 0 600 600" xml:space="preserve">
<path d="M367.4,263.8l-12.9,44.8c25.6-33.6,61.8-55,109.8-59.1c-0.9-0.2-1.9-0.4-2.9-0.8c-5.2-1.9-9.5-6-11.7-11.2
	c-0.9-2.2-1.4-4.5-1.5-6.9c-0.9-37.2-0.9-74.4,0-111.6c0.2-2.4,0.6-4.6,1.5-6.9c2.2-5.1,6.5-9.2,11.7-11.2c1.9-0.7,3.9-1,5.9-1.2
	c37.6-0.9,75.3-0.9,112.8,0c2,0.2,4,0.5,5.9,1.2c5.2,1.9,9.5,6,11.7,11.2c0.9,2.3,1.4,4.5,1.5,6.9c0.9,37.2,0.9,74.4,0,111.6
	c-0.2,2.4-0.6,4.7-1.5,6.9c-2.2,5.1-6.5,9.2-11.7,11.2c-1.9,0.7-3.9,1-5.9,1.2c-24.5,0.6-48.8,0.8-73.3,0.6c3.3,2,5.5,5.7,5.5,9.9
	c0,6.5-5.2,11.7-11.7,11.7h-18.9c-53.8,0-90.9,22.4-115.4,60.3c-8.7,13.4-15.2,27.9-19.7,42.3c-0.6,1.8-1.1,3.6-1.5,5.3h17.3
	c11-41.3,48.7-71.6,93.6-71.6s82.7,30.4,93.6,71.6h26.6c6.5,0,11.7,5.2,11.7,11.7c0,6.5-5.2,11.7-11.7,11.7h-23.4c0,0.4,0,0.7,0,1.1
	c0,53.1-43.3,96.1-96.8,96.1s-96.8-43-96.8-96.1c0-0.3,0-0.7,0-1.1h-28.6c-0.1,0-0.3,0-0.4,0H206.9l-1.4-10
	c-0.5-3.5-1.9-10.1-4.6-18.7c-4.5-14.4-11-28.9-19.7-42.3s-19-25-31.1-34.2l-8.8,20.9c31,16,52.3,48.2,52.3,85.4
	c0,53.1-43.4,96.1-96.8,96.1c-53.4,0-96.9-43-96.9-96.1c0-53.1,43.4-96.1,96.9-96.1c7.8,0,15.3,0.9,22.5,2.6l10.5-25.2
	c-18.1-8.8-39.3-13.6-64.1-13.6H46.9c-6.5,0-11.7-5.2-11.7-11.7c0-6.5,5.2-11.7,11.7-11.7h18.9c28,0,52.2,5.4,73.2,15.4l24.9-59.2
	c-4.1-4.5-0.9-14.2-0.9-25.4c0-15.6-6.2-28.2,9.4-28.2c11.5,0,31.4,6.8,41.4,16.4h15.4c6.5,0,11.7,5.2,11.7,11.7
	s-5.2,11.7-11.7,11.7h-15.4c-5.8,5.7-15.3,10.4-24.3,13.3L159.4,276c16.4,11.5,30.1,26.2,41.5,43.7c9.9,15.4,17.2,31.6,22.3,48
	c3.1,9.8,20.3,12.3,20.3,12.3h66l0.3-0.9L344,260.5c-17.5-6.3-29.7-20.7-29.7-37.5c0-22.5,22.2-13.6,49.7-13.6s82.7-8.9,82.7,13.6
	C446.6,244.7,395.8,262.4,367.4,263.8L367.4,263.8z M529.4,403.5h-46.7c0,0.3,0,0.7,0,1.1c0,15.6-12.7,28.2-28.4,28.2
	S426,420.2,426,404.6c0-0.3,0-0.7,0-1.1h-43.3c0,0.3,0,0.7,0,1.1c0,40.1,32.9,72.7,73.3,72.7s73.3-32.6,73.3-72.7
	C529.4,404.2,529.4,403.9,529.4,403.5L529.4,403.5z M110.1,333.1c-4.3-0.8-8.7-1.1-13.2-1.1c-40.5,0-73.4,32.6-73.4,72.7
	c0,40.1,32.9,72.7,73.4,72.7s73.3-32.6,73.3-72.7c0-27.4-15.4-51.3-38-63.7l-17.5,41.8c6.5,5.1,10.5,13.1,10.5,21.9
	c0,15.6-12.7,28.2-28.4,28.2s-28.4-12.6-28.4-28.2c0-13.8,10-25.3,23.1-27.6L110.1,333.1L110.1,333.1z M525.2,380.1
	c-10.1-28.1-37.3-48.1-69.1-48.1s-59,20.1-69.1,48.1h53.4c4.1-2.3,8.9-3.6,13.9-3.6s9.8,1.3,13.9,3.6H525.2L525.2,380.1z
	 M480.3,123.4c-2.4,0-4.5,0.9-6.1,2.6c-1.6,1.6-2.6,3.9-2.6,6.1c0,19.5,0,66.1,0,85.6c0,4.8,3.9,8.7,8.8,8.7c19.7,0,67.2,0,86.8,0
	c4.8,0,8.8-3.9,8.8-8.7c0-19.5,0-66.1,0-85.6c0-2.4-0.9-4.5-2.6-6.1c-1.6-1.6-3.9-2.6-6.1-2.6C538.3,123.4,509.3,123.4,480.3,123.4z
	 M543.8,136.9c1.4,0.1,2.9,0.4,4.2,1.1c1.1,0.6,2.3,1.4,3.1,2.4c0.7,0.9,1.3,1.9,1.7,3.1c1.6,4.5-0.3,9.7-4.5,12.2
	c-1.4,0.8-2.9,1.1-4.5,1.2c-13.5,0.3-27,0.8-40.4,0c-1.4-0.1-2.8-0.5-4.1-1.2c-1.1-0.6-2.2-1.5-3-2.6c-0.7-0.9-1.3-1.9-1.6-3.1
	c-1.4-4.5,0.5-9.5,4.6-11.8c1.4-0.8,2.9-1.1,4.5-1.2C517.1,136.6,530.5,136.6,543.8,136.9L543.8,136.9z"/>
</svg>
