<?xml version="1.0" encoding="utf-8"?>
<!-- Generator: Adobe Illustrator 17.1.0, SVG Export Plug-In . SVG Version: 6.00 Build 0)  -->
<!DOCTYPE svg PUBLIC "-//W3C//DTD SVG 1.1//EN" "http://www.w3.org/Graphics/SVG/1.1/DTD/svg11.dtd">
<svg version="1.1" id="Layer_1" xmlns="http://www.w3.org/2000/svg" xmlns:xlink="http://www.w3.org/1999/xlink" x="0px" y="0px"
	 viewBox="0 0 600 600" enable-background="new 0 0 600 600" xml:space="preserve">
<path d="M300.2,0L3.7,116l-1-0.4v0.7l0,0l0,0.1v368.2L300,600l297.3-115.3V115.6l-0.7,0.3l0.4-1.1L300.2,0z M299.9,22.6l100.7,35.7
	L126,163.7l-93-36.3L299.9,22.6z M289.4,574l-111.4-44.5l-55.9-20.8l-98.2-38.3V146.5l97.2,38v81l8.7-2.4l5.9,7.9l8.1-1.9l7.9,8.3
	l6.9-2.4l11.1,10.9v-82.5l8.7,3.4l111,43.3V574z M191.4,189.3L459.2,81.9l110.5,44.5L300,231.7L191.4,189.3z M310.6,574V250.1
	l265.4-103.6v323.9h0L310.6,574z"/>
</svg>
