<?xml version="1.0" encoding="utf-8"?>
<!-- Generator: Adobe Illustrator 17.1.0, SVG Export Plug-In . SVG Version: 6.00 Build 0)  -->
<!DOCTYPE svg PUBLIC "-//W3C//DTD SVG 1.1//EN" "http://www.w3.org/Graphics/SVG/1.1/DTD/svg11.dtd">
<svg version="1.1" id="Layer_1" xmlns="http://www.w3.org/2000/svg" xmlns:xlink="http://www.w3.org/1999/xlink" x="0px" y="0px"
	 viewBox="0 0 600 600" enable-background="new 0 0 600 600" xml:space="preserve">
<path d="M218.7,331v47.5c0,7.5-6.1,13.6-13.6,13.6h-47.4c-7.5,0-13.6-6.1-13.6-13.6V331c0-7.5,6.1-13.6,13.6-13.6h47.4
	C212.6,317.4,218.7,323.5,218.7,331z M323.7,317.4h-47.5c-7.5,0-13.6,6.1-13.6,13.6v47.5c0,7.5,6.1,13.6,13.6,13.6h47.5
	c7.5,0,13.6-6.1,13.6-13.6V331C337.3,323.5,331.2,317.4,323.7,317.4z M442.3,317.4h-47.5c-7.5,0-13.6,6.1-13.6,13.6v47.5
	c0,7.5,6.1,13.6,13.6,13.6h47.5c7.5,0,13.6-6.1,13.6-13.6V331C455.9,323.5,449.8,317.4,442.3,317.4z M205.1,436.2h-47.4
	c-7.5,0-13.6,6.1-13.6,13.6v47.5c0,7.5,6.1,13.6,13.6,13.6h47.4c7.5,0,13.6-6.1,13.6-13.6v-47.5
	C218.7,442.3,212.6,436.2,205.1,436.2z M323.7,436.2h-47.5c-7.5,0-13.6,6.1-13.6,13.6v47.5c0,7.5,6.1,13.6,13.6,13.6h47.5
	c7.5,0,13.6-6.1,13.6-13.6v-47.5C337.3,442.3,331.2,436.2,323.7,436.2z M442.3,436.2h-47.5c-7.5,0-13.6,6.1-13.6,13.6v47.5
	c0,7.5,6.1,13.6,13.6,13.6h47.5c7.5,0,13.6-6.1,13.6-13.6v-47.5C455.9,442.3,449.8,436.2,442.3,436.2z M592.9,120.5v425.3
	c0,29.7-24.1,54.1-53.7,54.1H60.8c-29.7,0-53.7-24.4-53.7-54.1V120.5c0-29.2,23.5-52.9,52.1-53.7v72.6c0,32.8,26.6,59.2,59.3,59.2
	H156c32.7,0,59.7-26.4,59.7-59.2V66.5h168.7v72.8c0,32.8,26.9,59.2,59.7,59.2h37.4c32.7,0,59.3-26.4,59.3-59.2V66.8
	C569.4,67.7,592.9,91.4,592.9,120.5z M523.4,299.7c0-12.8-10.4-23.3-23.2-23.3H98.8c-12.8,0-23.2,10.4-23.2,23.3v219.7
	c0,12.8,10.4,23.3,23.2,23.3h401.4c12.8,0,23.2-10.4,23.2-23.3V299.7z M155.4,0h-37c-11.2,0-20.3,9.1-20.3,20.4v119
	c0,11.3,9.1,20.4,20.3,20.4h37c11.2,0,20.3-9.1,20.3-20.4v-119C175.8,9.1,166.7,0,155.4,0z M480.6,0h-37c-11.2,0-20.3,9.1-20.3,20.4
	v119c0,11.3,9.1,20.4,20.3,20.4h37c11.2,0,20.3-9.1,20.3-20.4v-119C500.9,9.1,491.8,0,480.6,0z"/>
</svg>
