<?xml version="1.0" encoding="utf-8"?>
<!-- Generator: Adobe Illustrator 17.1.0, SVG Export Plug-In . SVG Version: 6.00 Build 0)  -->
<!DOCTYPE svg PUBLIC "-//W3C//DTD SVG 1.1//EN" "http://www.w3.org/Graphics/SVG/1.1/DTD/svg11.dtd">
<svg version="1.1" id="Layer_1" xmlns="http://www.w3.org/2000/svg" xmlns:xlink="http://www.w3.org/1999/xlink" x="0px" y="0px"
	 viewBox="0 0 600 600" enable-background="new 0 0 600 600" xml:space="preserve">
<path d="M530.3,146.6h-97.5l-2.3-9.5c-9.4-38.1-45.3-64.7-87.2-64.7h-86.8c-41.8,0-77.6,26.6-87.2,64.7l-2.3,9.5H69.7
	C31.2,146.6,0,175.9,0,211.7v247.5c0,37.8,32.8,68.5,73.2,68.5h453.6c40.4,0,73.2-30.7,73.2-68.5V211.7
	C600,175.7,568.8,146.6,530.3,146.6z M569.9,459.2c0,22.3-19.3,40.4-43.2,40.4H73.2c-23.9,0-43.2-18.1-43.2-40.4V211.7
	c0-20.5,17.7-37.1,39.7-37.1H179c7,0,13-4.5,14.6-10.9l5-20.4c6.4-25.3,30.1-42.9,57.9-42.9h86.8c27.8,0,51.5,17.6,57.9,42.9l5,20.4
	c1.6,6.3,7.6,10.9,14.6,10.9h109.3c21.9,0,39.7,16.6,39.7,37.1V459.2z M121.6,234.5c0,10.4-9,18.8-20.1,18.8s-20.1-8.4-20.1-18.8
	c0-10.4,9-18.8,20.1-18.8S121.6,224.1,121.6,234.5z M300,220c-69.4,0-126,52.8-126,117.8c0,65,56.6,117.8,126,117.8
	s126-52.9,126-117.8S369.4,220,300,220z M300,427.6c-52.9,0-96-40.3-96-89.7s43.1-89.7,96-89.7c52.9,0,96,40.3,96,89.7
	S352.9,427.6,300,427.6z"/>
</svg>
