<?xml version="1.0" encoding="utf-8"?>
<!-- Generator: Adobe Illustrator 17.1.0, SVG Export Plug-In . SVG Version: 6.00 Build 0)  -->
<!DOCTYPE svg PUBLIC "-//W3C//DTD SVG 1.1//EN" "http://www.w3.org/Graphics/SVG/1.1/DTD/svg11.dtd">
<svg version="1.1" id="Layer_1" xmlns="http://www.w3.org/2000/svg" xmlns:xlink="http://www.w3.org/1999/xlink" x="0px" y="0px"
	 viewBox="0 0 600 600" enable-background="new 0 0 600 600" xml:space="preserve">
<path d="M172.3,582.9c25.9,25.9,72,21.9,102.9-9L574,275.2c30.8-30.8,34.8-77,9-102.9L427.7,17.1c-25.9-25.9-72-21.9-102.9,9
	L26,324.8c-30.8,30.8-34.9,77-9,102.9L172.3,582.9z M449.4,101.8l102,102c9.8,9.8,6.9,28.8-6.5,42.2L246,544.9
	c-13.4,13.4-32.4,16.4-42.2,6.5l-102-102L449.4,101.8z M55.1,353.9L353.9,55.1c13.4-13.4,32.4-16.4,42.2-6.5l24.2,24.1L72.7,420.3
	l-24.2-24.2C38.8,386.3,41.7,367.4,55.1,353.9z M241.7,416.5l29.1,29.1L213,503.4l-29.1-29.1L241.7,416.5z M308.9,349.3l29.1,29.1
	l-57.8,57.8l-29.1-29.1L308.9,349.3z"/>
</svg>
