<?xml version="1.0" encoding="utf-8"?>
<!-- Generator: Adobe Illustrator 17.1.0, SVG Export Plug-In . SVG Version: 6.00 Build 0)  -->
<!DOCTYPE svg PUBLIC "-//W3C//DTD SVG 1.1//EN" "http://www.w3.org/Graphics/SVG/1.1/DTD/svg11.dtd">
<svg version="1.1" id="Layer_1" xmlns="http://www.w3.org/2000/svg" xmlns:xlink="http://www.w3.org/1999/xlink" x="0px" y="0px"
	 viewBox="0 0 600 600" enable-background="new 0 0 600 600" xml:space="preserve">
<path d="M59.7,389h49.7v201.5c0,5.2,4.1,9.4,9.2,9.4h222.3h13.1h117.7c5.1,0,9.2-4.2,9.2-9.4V389h59.5c5.1,0,9.2-4.2,9.2-9.4V128.5
	c0-5.2-4.1-9.4-9.2-9.4h-59.5V94.8c0-30.1-23.9-54.6-53.3-54.6c-13.4,0-25.6,5.1-34.9,13.4C392,23.9,368.3,0,339.2,0
	c-21.9,0-40.7,13.5-48.9,32.9c-9.8-10.9-23.8-17.8-39.4-17.8c-29.4,0-53.3,24.5-53.3,54.6v14c-9.4-8.3-21.6-13.4-34.9-13.4
	c-27.5,0-50.2,21.4-53,48.8h-50c-5.1,0-9.2,4.2-9.2,9.4v251.1C50.5,384.8,54.6,389,59.7,389z M462.4,581.2H353.9h-13.1H127.7v-76
	c0-64,50.9-116.1,113.4-116.1h137.3c5.1,0,9.2-4.2,9.2-9.4v-97.9c0-15.6,12.4-28.3,27.6-28.3h19.6c15.2,0,27.6,12.7,27.6,28.3V581.2
	z M127.7,436.5V389h46.3C155,400.6,139.1,417,127.7,436.5z M369.3,311.1c-17,21.6-42.2,34-69.3,34c-49,0-88.9-40.8-88.9-91
	c0-50.2,39.9-91,88.9-91c45.4,0,83.1,34.5,88.3,80.6c-11.5,8.6-19,22.5-19,38.1V311.1z M392.6,94.8c0-19.7,15.7-35.8,34.9-35.8
	c19.3,0,34.9,16.1,34.9,35.8v24.3h-69.9V94.8z M304.3,69.7v-1.5V54.6h0c0-19.7,15.7-35.8,34.9-35.8c19.3,0,34.9,16.1,34.9,35.8v38.7
	v1.5v24.3h-69.9V69.7z M216,69.7c0-19.7,15.7-35.8,34.9-35.8c19.3,0,34.9,16.1,34.9,35.8v49.4h-58.6c0,0,0,0,0,0H216V69.7z
	 M162.7,89.2c17.3,0,31.7,13,34.5,29.9h-68.9C131,102.1,145.4,89.2,162.7,89.2z M68.9,137.9h162.4c0,0,0,0,0,0h299.7v232.3h-50.3
	v-11.3c0.2,0,0.4,0,0.6,0h29.4c5.1,0,9.2-4.2,9.2-9.4c0-5.2-4.1-9.4-9.2-9.4h-29.4c-0.2,0-0.4,0-0.6,0v-58.4c0-26-20.6-47.1-46-47.1
	h-19.6c-3.3,0-6.4,0.4-9.5,1c-4-24.1-15.7-46.2-33.5-62.8c-19.8-18.5-45.4-28.6-72.2-28.6c-59.2,0-107.3,49.3-107.3,109.9
	c0,60.6,48.1,109.9,107.3,109.9c25.7,0,50.1-9.3,69.3-26v32.2H68.9V137.9z M338.5,247.4v31.8h-8.7v-47.1h7l22.6,29.2V232h8.7v47.2
	h-5.4v0.1L338.5,247.4z M312.3,279.3v-34.2l-15,20.5h-1.7L281,245v34.3h-8.7v-47.1h10l14.4,20.3l14.4-20.3h9.9v47.1H312.3z
	 M243.7,279.2v-39.1h-14.6v-8.1H267v8.1h-14.6v39.1H243.7z M432.4,178.1c-5.1,0-9.2-4.2-9.2-9.4c0-5.2,4.1-9.4,9.2-9.4h78.5
	c5.1,0,9.2,4.2,9.2,9.4c0,5.2-4.1,9.4-9.2,9.4H432.4z M452,218.3c-5.1,0-9.2-4.2-9.2-9.4c0-5.2,4.1-9.4,9.2-9.4h58.8
	c5.1,0,9.2,4.2,9.2,9.4c0,5.2-4.1,9.4-9.2,9.4H452z M89.1,178.1c-5.1,0-9.2-4.2-9.2-9.4c0-5.2,4.1-9.4,9.2-9.4h78.5
	c5.1,0,9.2,4.2,9.2,9.4c0,5.2-4.1,9.4-9.2,9.4H89.1z M157.2,208.9c0,5.2-4.1,9.4-9.2,9.4H89.1c-5.1,0-9.2-4.2-9.2-9.4
	c0-5.2,4.1-9.4,9.2-9.4H148C153.1,199.4,157.2,203.7,157.2,208.9z M127.7,349.5c0,5.2-4.1,9.4-9.2,9.4H89.1c-5.1,0-9.2-4.2-9.2-9.4
	c0-5.2,4.1-9.4,9.2-9.4h29.4C123.6,340.1,127.7,344.3,127.7,349.5z M157.8,358.9c-5.1,0-9.2-4.2-9.2-9.4c0-5.2,4.1-9.4,9.2-9.4h29.4
	c5.1,0,9.2,4.2,9.2,9.4c0,5.2-4.1,9.4-9.2,9.4H157.8z M133.3,249.7c-13.2,0-23.9,11-23.9,24.5s10.7,24.5,23.9,24.5
	c13.2,0,23.9-11,23.9-24.5S146.4,249.7,133.3,249.7z M133.3,279.8c-3,0-5.5-2.5-5.5-5.6c0-3.1,2.5-5.7,5.5-5.7c3,0,5.5,2.5,5.5,5.7
	C138.8,277.3,136.3,279.8,133.3,279.8z"/>
</svg>
