<?xml version="1.0" encoding="utf-8"?>
<!-- Generator: Adobe Illustrator 17.1.0, SVG Export Plug-In . SVG Version: 6.00 Build 0)  -->
<!DOCTYPE svg PUBLIC "-//W3C//DTD SVG 1.1//EN" "http://www.w3.org/Graphics/SVG/1.1/DTD/svg11.dtd">
<svg version="1.1" id="Layer_1" xmlns="http://www.w3.org/2000/svg" xmlns:xlink="http://www.w3.org/1999/xlink" x="0px" y="0px"
	 viewBox="0 0 600 600" enable-background="new 0 0 600 600" xml:space="preserve">
<path d="M55.6,0.1c-4.6,0.2-9,2.3-12.1,5.8l-38,42.8C2.5,52.2,1,56.5,1,60.8c0,4.8,1.9,9.7,5.7,13.2c7.2,6.6,18.2,6.1,24.7-1.2
	l9.5-10.7v479.2c0,9.9,7.9,17.9,17.5,17.9h481.5l-9.8,10.7c-6.6,7.2-6.3,18.5,0.7,25.3s18.1,6.5,24.7-0.7l38.7-42.1
	c6.6-7.2,6.3-18.5-0.7-25.3l-41-39.6c-7-6.8-18.1-6.5-24.7,0.7c-3.2,3.5-4.8,7.9-4.8,12.3c0,4.7,1.9,9.5,5.5,13l10.3,9.9H76V60.3
	l10.6,9.9c7.2,6.6,18.2,6.1,24.7-1.2c6.4-7.3,5.9-18.6-1.2-25.3L68.4,4.8C65,1.6,60.5-0.1,55.6,0.1z M185.1,491.1
	c25.1,0,45.6-20.9,45.6-46.7V136.1c0-25.8-20.5-46.8-45.6-46.8h-23.2c-25.1,0-45.6,21-45.6,46.8v308.3c0,25.7,20.4,46.7,45.6,46.7
	H185.1z M185.1,455.3h-23.3c-5.9,0-10.7-4.9-10.7-10.9V136.1c0-6,4.8-10.9,10.7-10.9h23.3c5.9,0,10.7,4.9,10.7,10.9v308.4
	c0,6-4.8,10.9-10.7,10.9V455.3z M295.8,491.1h23.3c25.1,0,45.6-20.9,45.6-46.7V235.5c0-25.8-20.5-46.8-45.6-46.8h-23.3
	c-25.1,0-45.6,21-45.6,46.8v208.9C250.2,470.2,270.6,491.1,295.8,491.1z M319.1,455.3h-23.3c-5.9,0-10.7-4.9-10.7-10.9V235.6
	c0-6,4.8-10.9,10.7-10.9h23.3c5.9,0,10.7,4.9,10.7,10.9v208.9c0,6-4.8,10.9-10.7,10.9V455.3z M453,491.1c25.1,0,45.6-20.9,45.6-46.7
	V57.5c0-25.7-20.5-46.7-45.6-46.7h-23.3c-25.1,0-45.6,20.9-45.6,46.7v386.9c0,25.7,20.5,46.7,45.6,46.7H453z M453,455.3h-23.3
	c-5.9,0-10.7-4.9-10.7-10.9V57.6c0-6,4.8-10.9,10.7-10.9H453c5.9,0,10.7,4.9,10.7,10.9v386.9c0,6-4.8,10.9-10.7,10.9V455.3z"/>
</svg>
