<?xml version="1.0" encoding="utf-8"?>
<!-- Generator: Adobe Illustrator 17.1.0, SVG Export Plug-In . SVG Version: 6.00 Build 0)  -->
<!DOCTYPE svg PUBLIC "-//W3C//DTD SVG 1.1//EN" "http://www.w3.org/Graphics/SVG/1.1/DTD/svg11.dtd">
<svg version="1.1" id="Layer_1" xmlns="http://www.w3.org/2000/svg" xmlns:xlink="http://www.w3.org/1999/xlink" x="0px" y="0px"
	 viewBox="0 0 600 600" enable-background="new 0 0 600 600" xml:space="preserve">
<g>
	<path d="M595.3,531.7L556.4,490c-6.7-7.1-18-7.6-25.3-1.2c-7.3,6.5-7.8,17.5-1.2,24.7l9.9,10.6H76.7V61.3l9.9,10.3
		c3.5,3.6,8.3,5.5,13,5.5c4.4,0,8.8-1.6,12.3-4.8c7.2-6.6,7.5-17.7,0.7-24.7L73,6.6c-6.8-7-18.1-7.3-25.3-0.7L5.6,44.6
		c-7.2,6.6-7.5,17.7-0.7,24.7c6.8,7,18.1,7.3,25.3,0.7l10.7-9.8v481.5c0,9.6,8,17.5,17.9,17.5H538l-10.7,9.5
		c-7.3,6.5-7.8,17.5-1.2,24.7c3.5,3.8,8.4,5.7,13.2,5.7c4.3,0,8.6-1.5,12.1-4.5l42.8-38c3.5-3.1,5.6-7.5,5.8-12.1
		C600.2,539.6,598.5,535.1,595.3,531.7z"/>
	<path d="M109,438.2c0,25.2,21,45.6,46.7,45.6H464c25.8,0,46.8-20.5,46.8-45.6V415c0-25.1-21-45.6-46.8-45.6H155.7
		c-25.8,0-46.7,20.5-46.7,45.6V438.2z M144.7,415c0-5.9,4.9-10.7,10.9-10.7H464c6,0,10.9,4.8,10.9,10.7v23.3
		c0,5.9-4.9,10.7-10.9,10.7H155.7c-6,0-10.9-4.8-10.9-10.7V415z"/>
	<path d="M155.7,349.9h208.9c25.8,0,46.8-20.5,46.8-45.6V281c0-25.1-21-45.6-46.8-45.6H155.7c-25.8,0-46.7,20.5-46.7,45.6v23.3
		C109,329.5,129.9,349.9,155.7,349.9z M144.7,281c0-5.9,4.9-10.7,10.9-10.7h208.9c6,0,10.9,4.8,10.9,10.7v23.3
		c0,5.9-4.9,10.7-10.9,10.7H155.7c-6,0-10.9-4.8-10.9-10.7V281z"/>
	<path d="M109,170.4c0,25.1,21,45.6,46.7,45.6h386.9c25.8,0,46.7-20.5,46.7-45.6v-23.3c0-25.1-21-45.6-46.7-45.6H155.7
		c-25.8,0-46.7,20.5-46.7,45.6V170.4z M144.7,147.1c0-5.9,4.9-10.7,10.9-10.7h386.9c6,0,10.9,4.8,10.9,10.7v23.3
		c0,5.9-4.9,10.7-10.9,10.7H155.7c-6,0-10.9-4.8-10.9-10.7V147.1z"/>
</g>
</svg>
