<?xml version="1.0" encoding="utf-8"?>
<!-- Generator: Adobe Illustrator 17.1.0, SVG Export Plug-In . SVG Version: 6.00 Build 0)  -->
<!DOCTYPE svg PUBLIC "-//W3C//DTD SVG 1.1//EN" "http://www.w3.org/Graphics/SVG/1.1/DTD/svg11.dtd">
<svg version="1.1" id="Layer_1" xmlns="http://www.w3.org/2000/svg" xmlns:xlink="http://www.w3.org/1999/xlink" x="0px" y="0px"
	 viewBox="0 0 600 600" enable-background="new 0 0 600 600" xml:space="preserve">
<path d="M558.4,147.5c-31.3-52.9-78.9-95.7-134.9-121C401,16.4,377.3,9,353.1,4.6C336.9,1.8,320.4,0.3,304,0
	c-5.2-0.1-10.4,0-15.6,0.2c-13.9,0.7-27.7,2-41.5,4.4c-27.8,5-55,14-80.3,26.6C133.2,47.8,103,70.7,77.9,98.3
	c-23.5,25.9-42.5,55.8-55.7,88.2C10.4,215.4,3.2,246,0.9,277c-2.3,30.4,0,61.1,6.8,90.8c8.5,36.8,24.1,71.9,45.6,103
	c13.6,19.7,29.7,37.8,47.6,53.7c26.2,23.3,56.5,41.9,89,54.7c37.3,14.8,77.6,21.7,117.7,20.7c26.4-0.6,52.7-4.8,78-12.3
	c11.7-3.5,23.1-7.8,34.3-12.6c32.1-13.8,61.8-33.7,87.1-57.9c25.2-24.1,46.3-52.5,61.8-83.8c14.2-28.7,23.8-59.7,28.3-91.4
	c4.4-31.5,3.8-63.7-1.8-95C589.1,211.9,576.5,178.1,558.4,147.5z M506.3,390c-9.1,20.8-21.4,40.1-36.2,57.3
	c-25.9,30.1-60.2,53.3-97.8,65.9c-25.2,8.4-51.6,12.4-78.2,11.8c-19.7-0.5-39.5-3.6-58.4-9.2c-8.9-2.6-17.5-5.9-26-9.6
	c-23.9-10.3-46.1-25.2-64.9-43.2c-18.9-18.1-34.8-39.4-46.4-62.9c-9-18.2-15.6-37.5-19.4-57.4c-9.5-49.9-1.9-102.5,21.8-147.5
	c11.4-21.6,26.3-41.2,44-58.1c17.6-16.8,38-30.9,60-41.1c17.6-8.2,36.2-14.1,55.3-17.5c12.2-2.2,24.6-3.3,37.1-3.5
	c3.8-0.1,7.7,0,11.5,0.1c10.5,0.5,20.9,1.5,31.2,3.3c20.8,3.7,41.2,10.4,60.1,19.9c26.6,13.2,50.7,31.8,70.1,54.3
	c18.4,21.3,32.9,45.9,42.2,72.5c8.7,24.9,13,51.3,12.7,77.7C524.6,332.8,518.3,362.7,506.3,390z M424.6,381.6
	c3.9,5.5,6.5,11.6,7.2,18.3c1.7,16-7.2,31.7-21.9,38.3c-3.9,1.7-8,2.8-12.2,3.2c-4.8,0.4-9.7-0.1-14.3-1.6c-5.3-1.6-9.9-4.4-14.1-8
	c-36.3-34.6-71.8-70.2-106.5-106.5c-4.2-4.8-7.3-10.4-8.8-16.7c-0.5-2.3-0.8-4.5-1-6.9c-1-41.5-1-83,0-124.6
	c0.3-3.6,0.9-7.2,2.1-10.6c3.4-9.8,10.9-17.8,20.4-21.9c3.9-1.7,8-2.6,12.3-3c1.8-0.1,3.6-0.1,5.4,0c4.2,0.4,8.3,1.3,12.3,3
	c10,4.4,17.8,13.2,21,23.7c1,3.5,1.5,7.1,1.6,10.7v105.5c31.4,31.4,63.6,62.1,94.3,94.3C423.5,380.2,423.5,380.2,424.6,381.6z"/>
</svg>
