<?xml version="1.0" encoding="utf-8"?>
<!-- Generator: Adobe Illustrator 17.1.0, SVG Export Plug-In . SVG Version: 6.00 Build 0)  -->
<!DOCTYPE svg PUBLIC "-//W3C//DTD SVG 1.1//EN" "http://www.w3.org/Graphics/SVG/1.1/DTD/svg11.dtd">
<svg version="1.1" id="Layer_1" xmlns="http://www.w3.org/2000/svg" xmlns:xlink="http://www.w3.org/1999/xlink" x="0px" y="0px"
	 viewBox="0 0 600 600" enable-background="new 0 0 600 600" xml:space="preserve">
<path d="M0,262.1v-17.8c0-45.4,78-82.2,174.3-82.2c16.9,0,33.2,1.1,48.6,3.2v175.7c-15.4,2.1-31.7,3.2-48.6,3.2
	C78,344.3,0,307.5,0,262.1z M174.3,436c16.9,0,33.2-1.1,48.6-3.2v-51.5c-15.4,2.1-31.7,3.3-48.6,3.3c-84,0-154.2-28-170.7-65.3
	C1.3,324.6,0,330.3,0,336v17.8C0,399.2,78,436,174.3,436z M222.9,477v-4c-15.4,2.1-31.7,3.3-48.6,3.3c-84,0-154.2-28-170.7-65.3
	C1.3,416.4,0,422,0,427.8v17.8c0,45.4,78,82.2,174.3,82.2c19.3,0,37.8-1.5,55.1-4.2c-4.3-9.1-6.5-18.7-6.5-28.7V477z M600,123v-17.8
	C600,59.8,521.9,23,425.7,23c-96.3,0-174.3,36.8-174.3,82.2V123c0,45.4,78.1,82.2,174.3,82.2C521.9,205.1,600,168.3,600,123z
	 M425.7,296.9c-96.3,0-174.3-36.8-174.3-82.2v-17.8c0-5.8,1.3-11.4,3.7-16.8c16.5,37.3,86.6,65.3,170.7,65.3s154.2-28,170.6-65.3
	c2.4,5.4,3.7,11.1,3.7,16.8v17.8C600,260.1,521.9,296.9,425.7,296.9z M425.7,388.6c-96.3,0-174.3-36.8-174.3-82.2v-17.8
	c0-5.8,1.3-11.4,3.7-16.8c16.5,37.3,86.6,65.3,170.7,65.3s154.2-28,170.6-65.3c2.4,5.4,3.7,11.1,3.7,16.8v17.8
	C600,351.8,521.9,388.6,425.7,388.6z M425.7,485.3c-96.3,0-174.3-36.8-174.3-82.2v-17.8c0-5.8,1.3-11.4,3.7-16.8
	c16.5,37.3,86.6,65.3,170.7,65.3s154.2-28,170.6-65.3c2.4,5.4,3.7,11.1,3.7,16.8v17.8C600,448.5,521.9,485.3,425.7,485.3z
	 M425.7,577c-96.3,0-174.3-36.8-174.3-82.2V477c0-5.8,1.3-11.4,3.7-16.8c16.5,37.3,86.6,65.3,170.7,65.3s154.2-28,170.6-65.3
	c2.4,5.4,3.7,11.1,3.7,16.8v17.8C600,540.2,521.9,577,425.7,577z"/>
</svg>
