<?xml version="1.0" encoding="utf-8"?>
<!-- Generator: Adobe Illustrator 17.1.0, SVG Export Plug-In . SVG Version: 6.00 Build 0)  -->
<!DOCTYPE svg PUBLIC "-//W3C//DTD SVG 1.1//EN" "http://www.w3.org/Graphics/SVG/1.1/DTD/svg11.dtd">
<svg version="1.1" id="Layer_1" xmlns="http://www.w3.org/2000/svg" xmlns:xlink="http://www.w3.org/1999/xlink" x="0px" y="0px"
	 viewBox="0 0 600 600" enable-background="new 0 0 600 600" xml:space="preserve">
<path d="M300,363.7L76.8,586.9c-17.5,17.5-45.8,17.5-63.5-0.2c-17.6-17.6-17.7-46-0.2-63.5L236.3,300L13.1,76.8
	C-4.4,59.3-4.4,31,13.3,13.3c17.6-17.6,46-17.7,63.5-0.2L300,236.3L523.2,13.1c17.5-17.5,45.8-17.5,63.5,0.2
	c17.6,17.6,17.7,46,0.2,63.5L363.7,300l223.2,223.2c17.5,17.5,17.5,45.8-0.2,63.5c-17.6,17.6-46,17.7-63.5,0.2L300,363.7z"/>
</svg>
