<?xml version="1.0" encoding="utf-8"?>
<!-- Generator: Adobe Illustrator 17.1.0, SVG Export Plug-In . SVG Version: 6.00 Build 0)  -->
<!DOCTYPE svg PUBLIC "-//W3C//DTD SVG 1.1//EN" "http://www.w3.org/Graphics/SVG/1.1/DTD/svg11.dtd">
<svg version="1.1" id="Layer_1" xmlns="http://www.w3.org/2000/svg" xmlns:xlink="http://www.w3.org/1999/xlink" x="0px" y="0px"
	 viewBox="0 0 600 600" enable-background="new 0 0 600 600" xml:space="preserve">
<path d="M579.6,131.1c-54.7,57.3-110.3,113.6-166.4,169.5c54.5,55.3,108.9,110.7,163.9,165.6c2.5,2.7,5,5.4,7.2,8.3
	c5.2,6.9,9.2,14.6,11.8,22.7c2.3,7,3.6,14.3,3.8,21.6c0.3,7.3-0.5,14.7-2.3,21.9c-5.4,21.5-20.1,40.1-39.8,50.4
	c-8.7,4.5-18.2,7.4-28,8.4c-9.7,1-19.7,0.2-29.1-2.4c-8.3-2.3-16.1-5.9-23.2-10.8c-3.1-2.1-5.9-4.4-8.6-6.8
	c-57.3-54.7-113.6-110.3-169.5-166.4c-55.3,54.5-110.7,109-165.6,163.9c-2.7,2.5-5.4,5-8.3,7.2c-6.9,5.2-14.6,9.2-22.7,11.8
	c-7,2.3-14.3,3.6-21.6,3.8c-22.2,0.8-44.1-8.1-59.4-24.2c-5.1-5.3-9.4-11.4-12.8-17.9c-4.5-8.7-7.4-18.2-8.4-28
	c-1-9.7-0.2-19.7,2.4-29.1c2.3-8.3,5.9-16.1,10.8-23.2c2.1-3.1,4.4-5.9,6.8-8.6c54.7-57.3,110.3-113.6,166.4-169.5
	C132.3,244.1,77.9,188.7,23,133.8c-2.5-2.7-5-5.4-7.2-8.3c-5.2-6.9-9.2-14.6-11.8-22.7c-2.3-7-3.6-14.3-3.8-21.6
	c-0.3-7.3,0.5-14.7,2.3-21.9C7.8,37.7,22.4,19.1,42.1,8.9C52,3.7,62.7,1,73.8,0.1C77.4,0,77.4,0,81.1,0c4.9,0.3,9.7,0.8,14.6,1.9
	c9.6,2.2,18.7,6.1,26.8,11.7c3.1,2.1,5.9,4.4,8.6,6.8c57.3,54.7,113.6,110.3,169.5,166.4c55.3-54.5,110.7-109,165.6-163.9
	c3.6-3.4,7.2-6.6,11.3-9.4c9.1-6.2,19.5-10.5,30.4-12.4c3.6-0.6,7.3-0.9,11-1.2c3.7,0,3.7,0,7.3,0.1C537.3,1,548,3.7,557.9,8.9
	c18.6,9.7,32.7,26.8,38.8,46.8c2.1,7,3.2,14.4,3.3,21.7c0.1,7.3-0.9,14.7-2.8,21.8c-2.3,8.3-5.9,16.1-10.8,23.2
	C584.3,125.5,582,128.3,579.6,131.1z"/>
</svg>
