<?xml version="1.0" encoding="utf-8"?>
<!-- Generator: Adobe Illustrator 17.1.0, SVG Export Plug-In . SVG Version: 6.00 Build 0)  -->
<!DOCTYPE svg PUBLIC "-//W3C//DTD SVG 1.1//EN" "http://www.w3.org/Graphics/SVG/1.1/DTD/svg11.dtd">
<svg version="1.1" id="Layer_1" xmlns="http://www.w3.org/2000/svg" xmlns:xlink="http://www.w3.org/1999/xlink" x="0px" y="0px"
	 viewBox="0 0 600 600" enable-background="new 0 0 600 600" xml:space="preserve">
<path d="M300,0C134.3,0,0,134.3,0,300c0,165.7,134.3,300,300,300s300-134.3,300-300C600,134.3,465.7,0,300,0z M448.7,448.7
	c-11.7,11.7-30.8,11.7-42.6-0.1L300,342.5L193.9,448.6c-11.8,11.8-30.8,12-42.6,0.1c-11.7-11.7-11.7-30.8,0.1-42.6L257.5,300
	L151.4,193.9c-11.8-11.8-12-30.8-0.1-42.6c11.7-11.7,30.8-11.7,42.6,0.1L300,257.5l106.1-106.1c11.8-11.8,30.8-12,42.6-0.1
	c11.7,11.7,11.7,30.8-0.1,42.6L342.5,300l106.1,106.1C460.4,417.9,460.6,436.9,448.7,448.7z"/>
</svg>
