<?xml version="1.0" encoding="utf-8"?>
<!-- Generator: Adobe Illustrator 20.0.0, SVG Export Plug-In . SVG Version: 6.00 Build 0)  -->
<svg version="1.1" id="Layer_1" xmlns="http://www.w3.org/2000/svg" xmlns:xlink="http://www.w3.org/1999/xlink" x="0px" y="0px"
	 viewBox="0 0 600 500" style="enable-background:new 0 0 600 500;" xml:space="preserve">
<style type="text/css">
	.st0{fill:#010202;}
</style>
<path class="st0" d="M377,73.4c2.1,0,3.8,1.7,3.8,3.8S379.1,81,377,81c-2.1,0-3.8-1.7-3.8-3.8S374.8,73.4,377,73.4z M261.2,77
	c2-0.5,4,0.8,4.5,2.8c0.5,2-0.8,4-2.8,4.5c-2,0.5-4-0.8-4.5-2.8C258,79.4,259.2,77.5,261.2,77z M358.7,62.3c8-10.5,19-18.2,34-18.2
	c40.2,0,37.7,27.9,37.7,48.2c0,14.9-16.9,25.4-37.7,25.4c-8.3,0-22.7,0.1-34.5,0.2c-5.1,0-9.8-2.3-12.9-6.3c-3.1-4-4.1-9.2-2.8-14.1
	c0.4-1.5,0.8-3,1.3-4.6l29.7-3.3c6.9,0,12.5-5.6,12.5-12.5c0-6.9-5.6-12.5-12.5-12.5L358.7,62.3z M241.5,70.6
	c5.2-11.6,13.9-21.4,28.1-24.7c37.9-8.9,41.8,17.9,46.3,37.1c3.3,14.1-10.3,27.7-30,32.3c-7.9,1.8-21.4,5.1-32.5,7.8
	c-4.8,1.1-9.8,0-13.6-3.1s-5.9-7.8-5.8-12.7c0.1-1.5,0.1-3,0.2-4.6l27.3-9.8c6.5-1.5,10.5-8,9-14.6c-1.5-6.5-8-10.5-14.6-9
	L241.5,70.6z M546,153.4c0.3,0,0.6,0,1-0.1c1-0.1,1.9-0.5,2.7-1c0.5-0.3,1-0.7,1.5-1.2c0.4-0.5,0.8-1,1.1-1.5
	c0.4-0.8,0.7-1.8,0.8-2.7c0.1-1-0.1-1.9-0.4-2.8s-0.8-1.7-1.5-2.4c-0.4-0.5-0.9-0.9-1.5-1.2c-0.5-0.3-1.1-0.6-1.7-0.8
	c-0.3-0.1-0.6-0.1-0.9-0.2c-0.3,0-0.6-0.1-1-0.1h-35.3c-0.3,0-0.6,0-1,0.1c-1,0.1-1.9,0.5-2.7,1c-0.5,0.3-1,0.7-1.5,1.2
	c-0.7,0.7-1.2,1.5-1.5,2.4c-0.3,0.9-0.5,1.9-0.4,2.8c0.1,0.6,0.2,1.3,0.4,1.9c0.3,0.9,0.8,1.7,1.5,2.4c0.4,0.5,0.9,0.9,1.5,1.2
	c0.5,0.3,1.1,0.6,1.7,0.8c0.8,0.2,1,0.2,1.9,0.3L546,153.4L546,153.4z M416.4,212.6l8.8-6.4l-8.8-10.4V212.6z M157.1,205.2
	l-11.9,31.5c4.3-3.4,9.9-5.4,17-5.1c65.5,3,98.3,22.3,113.6,36.2l16.4-10c-0.9-1.7-1.5-3.5-2-5.4L273,186.6l-22.4,25.7
	c-0.2,0.2-0.4,0.4-0.6,0.6c-1.9,6.1-8.3,9.7-14.6,8.1l-59-15.2c-0.6-0.1-1.1-0.3-1.7-0.5L157.1,205.2L157.1,205.2z M256.6,313.3
	l-4.4,10.5l6.6-11.9L256.6,313.3z M233.3,297.1h-80.3l16.5,30.2h51.2l11.9-28.6C232.7,298.1,233,297.6,233.3,297.1z M208.9,355.3
	h-24.1l7.3,13.4h11.3L208.9,355.3z M299,302.7h-2.9l-25.2,45.4l-1.2,1.8c-1.3,1.4-1.5,1.8-3.1,2.9c-1.2,0.8-2.4,1.4-3.8,1.9
	c-0.7,0.2-1.4,0.4-2.1,0.5c-0.7,0.1-1.4,0.1-2.1,0.2h-19.5l-5.6,13.4h37c-1.9-3.9-2-8.5,0.2-12.6L299,302.7z M308.3,396.8
	c6.3,21,25.8,36.3,48.9,36.3c28.2,0,51-22.9,51-51c0-28.2-22.9-51-51-51c-23.5,0-43.4,16-49.3,37.7h52.8l2.2,0.2
	c0.7,0.2,1.4,0.3,2.1,0.5c0.7,0.2,1.4,0.5,2,0.8c1.3,0.7,2.5,1.5,3.6,2.6s1.9,2.2,2.6,3.6c0.7,1.3,1.1,2.7,1.4,4.2
	c0.1,0.7,0.2,1.5,0.2,2.2c0,1.5-0.2,2.9-0.7,4.3c-0.5,1.4-1.1,2.7-2,3.9c-0.9,1.2-1.9,2.2-3.1,3.1c-1.2,0.9-2.5,1.5-3.9,2
	c-0.7,0.2-1.4,0.4-2.1,0.5s-1.5,0.1-2.2,0.2L308.3,396.8L308.3,396.8z M79.4,331.4c-1.9-0.2-3.8-0.3-5.7-0.3c-28.2,0-51,22.9-51,51
	s22.9,51,51,51s51-22.9,51-51c0-16.2-7.6-30.7-19.4-40l-18.5,49l-1,2c-0.4,0.6-0.8,1.3-1.3,1.8c-0.9,1.1-2,2.1-3.2,3
	c-0.6,0.4-1.3,0.8-1.9,1.1c-1.3,0.6-2.8,1-4.2,1.2c-1.5,0.2-2.9,0.1-4.4-0.2c-0.7-0.1-1.4-0.4-2.1-0.6c-1.4-0.5-2.7-1.3-3.8-2.2
	c-1.1-0.9-2.1-2-3-3.2c-0.8-1.2-1.4-2.6-1.8-4s-0.5-2.9-0.5-4.4c0-0.7,0.1-1.5,0.3-2.2c0.1-0.7,0.4-1.4,0.6-2.1L79.4,331.4z
	 M364.5,302.7l-9.4,5.7c0.7,0,1.3,0,2,0c40.7,0,73.7,33,73.7,73.7s-33,73.7-73.7,73.7c-35.7,0-65.4-25.4-72.3-59H183.8
	c-0.7-0.1-1.4-0.1-2.1-0.2c-1.4-0.2-2.8-0.7-4.1-1.3c-1.3-0.6-2.5-1.5-3.5-2.4c-1.4-1.3-1.6-1.8-2.6-3.4l-49.6-90.8l-8.1,21.5
	c20.3,13.1,33.8,36,33.8,61.9c0,40.7-33,73.7-73.7,73.7S0,422.8,0,382.1s33.1-73.7,73.7-73.7c4.8,0,9.4,0.5,13.9,1.3l6.7-17.7
	l-8.6,1.3c-3.5,0.5-7.1-0.5-9.9-2.8c-2.7-2.3-4.3-5.7-4.3-9.3c0-10.4,0-24.4,0-34.9c0-3.6,1.6-7.1,4.4-9.4s6.5-3.3,10.1-2.6
	c7.6,1.4,16.6,3.1,23.4,4.4c1.6,0.3,3,0.9,4.3,1.7l20.5-54.2c0.8-1.7,0.9-2.2,2.1-3.7c0.9-1.1,1.9-2.1,3.1-2.9
	c1.2-0.8,2.4-1.4,3.8-1.8c1.8-0.6,2.3-0.5,4.2-0.6h49c0.7,0.1,1.5,0.1,2.2,0.2c0.7,0.2,1.4,0.3,2.1,0.5c0.7,0.2,1.4,0.5,2,0.8
	c1.3,0.7,2.5,1.5,3.6,2.6c1,1,1.9,2.2,2.6,3.6c0.7,1.3,1.1,2.7,1.4,4.2c0,0.2,0.1,0.3,0.1,0.5l21.4,5.5l33.4-38.4l-1.5-5.8
	c-3.8-14.5,5-29.4,19.5-33.2c14.5-3.8,29.4,5,33.2,19.5l26.4,101.7c3.6,13.7-4,27.7-17,32.4c-0.2,0.2-0.5,0.3-0.7,0.5l-4.9,3h13.5
	l26.5-16.1v-0.1V149.8c0-15.5,12.6-28.1,28.1-28.1s28.1,12.6,28.1,28.1v4.9l36.1,42.9c2.4,2.8,3.3,6.3,3,9.6c0.4,4.2-1.4,8.5-5,11.2
	l-34.1,25.2v14.6c0,6.3-2,12-5.5,16.7c0.4,0.1,0.7,0.2,1,0.3c0.7,0.2,1.4,0.5,2,0.8c0.7,0.3,1.3,0.7,1.8,1.1l13.2-15.1
	c0.5-0.5,0.6-0.6,1.1-1c0.6-0.4,1.3-0.7,2.1-0.8c0.2,0,0.5,0,0.7-0.1h35.8c-6.7-0.1-12.1-5.6-12.1-12.4V129.3
	c0-6.8,5.5-12.4,12.4-12.4h118.7c6.8,0,12.4,5.5,12.4,12.4V248c0,6.8-5.5,12.4-12.4,12.4h-27.3l0.8,0.1c0.3,0.1,0.5,0.1,0.8,0.2
	c0.3,0.1,0.5,0.2,0.8,0.3c0.5,0.2,1,0.6,1.3,1c0.4,0.4,0.7,0.8,1,1.3c0.2,0.5,0.4,1,0.5,1.5c0.1,0.5,0.1,1.1,0,1.6
	c-0.1,0.5-0.2,1.1-0.5,1.5c-0.1,0.2-0.3,0.5-0.4,0.7c-0.3,0.4-0.7,0.8-1.2,1.2c-0.4,0.3-1,0.6-1.5,0.7c-0.3,0.1-0.5,0.2-0.8,0.2
	c-0.3,0.1-0.5,0.1-0.8,0.1h-125l-13.9,15.9c0.1,0.6,0.1,1.3,0.1,1.9c0,1.5-0.2,2.9-0.7,4.3c-0.5,1.4-1.1,2.7-2,3.9
	c-0.9,1.2-1.9,2.2-3.1,3.1s-2.5,1.5-3.9,2c-0.7,0.2-1.4,0.4-2.1,0.5c-0.7,0.1-1.5,0.1-2.2,0.2L364.5,302.7L364.5,302.7z"/>
</svg>
