<?xml version="1.0" encoding="utf-8"?>
<!-- Generator: Adobe Illustrator 17.1.0, SVG Export Plug-In . SVG Version: 6.00 Build 0)  -->
<!DOCTYPE svg PUBLIC "-//W3C//DTD SVG 1.1//EN" "http://www.w3.org/Graphics/SVG/1.1/DTD/svg11.dtd">
<svg version="1.1" id="Layer_1" xmlns="http://www.w3.org/2000/svg" xmlns:xlink="http://www.w3.org/1999/xlink" x="0px" y="0px"
	 viewBox="0 0 600 600" enable-background="new 0 0 600 600" xml:space="preserve">
<path fill="#010101" d="M585.8,108.6H449.6c-7.8,0-14.2,6.4-14.2,14.2v136.1c0,7.8,6.4,14.2,14.2,14.2h136.2
	c7.8,0,14.2-6.4,14.2-14.2V122.8C600,114.9,593.6,108.6,585.8,108.6z M545.1,146c-0.3,0.7-0.8,1.3-1.3,1.8c-0.5,0.5-1.1,1-1.7,1.4
	c-0.9,0.6-2,0.9-3.1,1.1c-0.4,0-0.7,0-1.1,0.1h-40.6c-1-0.1-1.2,0-2.2-0.3c-0.7-0.2-1.4-0.5-2-0.9c-0.6-0.4-1.2-0.8-1.7-1.4
	c-0.8-0.8-1.3-1.8-1.7-2.8c-0.2-0.7-0.4-1.4-0.4-2.1c-0.1-1.1,0.1-2.2,0.4-3.2c0.4-1,0.9-2,1.7-2.8c0.5-0.5,1.1-1,1.7-1.4
	c0.9-0.6,2-0.9,3.1-1.1c0.4,0,0.7,0,1.1-0.1H538c0.4,0,0.7,0,1.1,0.1c0.4,0.1,0.7,0.1,1.1,0.2c0.7,0.2,1.4,0.5,2,0.9
	c0.6,0.4,1.2,0.8,1.7,1.4c0.8,0.8,1.3,1.8,1.7,2.8c0.4,1,0.5,2.1,0.4,3.2C545.9,144,545.6,145,545.1,146z M559.8,276.4
	c0.3,0.6,0.5,1.2,0.6,1.8c0.1,0.6,0.1,1.3,0,1.9c-0.1,0.6-0.3,1.2-0.6,1.8c-0.1,0.3-0.3,0.6-0.5,0.8c-0.4,0.5-0.8,1-1.3,1.3
	c-0.5,0.4-1.1,0.7-1.7,0.9c-0.3,0.1-0.6,0.2-0.9,0.2c-0.3,0-0.6,0-0.9,0.1H480l-23.6,27l-0.7,0.7c-0.3,0.2-0.5,0.4-0.8,0.5
	c-0.5,0.3-1.1,0.6-1.7,0.7c-0.3,0.1-0.6,0.1-0.9,0.1c-0.6,0-1.3,0-1.9-0.2c-0.6-0.2-1.2-0.4-1.7-0.7c-0.5-0.3-1-0.8-1.4-1.2
	c-0.4-0.5-0.7-1-1-1.6c-0.1-0.3-0.2-0.6-0.3-0.9c-0.1-0.6-0.2-1.2-0.1-1.9c0.1-0.6,0.2-1.2,0.5-1.8c0.1-0.3,0.3-0.6,0.4-0.8
	c0.2-0.3,0.4-0.5,0.6-0.8l25.4-29.1c0.5-0.5,0.7-0.7,1.3-1.1c0.7-0.5,1.5-0.8,2.4-0.9c0.3,0,0.6,0,0.9-0.1h77.1c0.3,0,0.6,0,0.9,0.1
	c0.3,0.1,0.6,0.1,0.9,0.2c0.3,0.1,0.6,0.2,0.9,0.4c0.6,0.3,1.1,0.7,1.5,1.1C559.1,275.3,559.5,275.8,559.8,276.4z M494.5,406.9
	c0,46.7-37.9,84.6-84.6,84.6c-40.9,0-75.1-29.1-82.9-67.7H210.9c-0.8-0.1-1.6-0.1-2.5-0.2c-1.6-0.3-3.2-0.7-4.7-1.5
	c-1.5-0.7-2.8-1.7-4-2.8c-1.6-1.5-1.8-2.1-3-3.9l-56.9-104.2l-9.3,24.7c23.3,15.1,38.8,41.3,38.8,71.1c0,46.7-37.9,84.6-84.6,84.6
	S0,453.5,0,406.9s37.9-84.6,84.6-84.6c5.5,0,10.8,0.5,16,1.5l7.7-20.3l-9.8,1.5c-4.1,0.6-8.2-0.5-11.3-3.2
	c-3.1-2.7-4.9-6.6-4.9-10.7c0-11.9,0-28,0-40c0-4.2,1.9-8.1,5.1-10.8c3.2-2.7,7.5-3.8,11.6-3c8.7,1.6,19.1,3.6,26.8,5
	c1.8,0.3,3.5,1,5,2l23.5-62.1c0.9-2,1-2.5,2.4-4.2c1-1.3,2.2-2.4,3.5-3.3c1.3-0.9,2.8-1.6,4.4-2.1c2.1-0.6,2.6-0.6,4.8-0.7h56.3
	c0.8,0.1,1.7,0.1,2.5,0.2c0.8,0.2,1.7,0.3,2.5,0.6c0.8,0.3,1.6,0.6,2.3,1c1.5,0.8,2.9,1.8,4.1,3c1.2,1.2,2.2,2.6,3,4.1
	c0.8,1.5,1.3,3.1,1.6,4.8c0.3,1.7,0.3,3.4,0,5c-0.1,0.8-0.3,1.7-0.6,2.5c-0.5,1.6-1.3,3.1-2.3,4.5c-1,1.4-2.2,2.6-3.6,3.6
	c-1.4,1-2.9,1.8-4.5,2.3c-0.8,0.3-1.6,0.5-2.5,0.6c-0.8,0.1-1.7,0.1-2.5,0.2h-45.1L166.7,240c5-3.9,11.3-6.2,19.5-5.8
	c90.4,4.1,126.4,35.3,138.7,50.3c0.2-0.1,0.4-0.1,0.6-0.2c2.1-0.7,2.7-0.6,4.8-0.7h137.4c0.8,0.1,1.7,0.1,2.5,0.2
	c0.8,0.2,1.7,0.3,2.5,0.6c0.8,0.3,1.6,0.6,2.3,1c1.5,0.8,2.9,1.8,4.1,3c1.2,1.2,2.2,2.6,3,4.1c0.4,0.7,0.7,1.5,1,2.3
	c0.5,1.6,0.8,3.3,0.8,5c0,1.7-0.3,3.4-0.8,5c-0.5,1.6-1.3,3.1-2.3,4.5c-1,1.4-2.2,2.6-3.6,3.6c-1.4,1-2.9,1.8-4.5,2.3
	c-0.8,0.3-1.6,0.5-2.5,0.6c-0.8,0.1-1.7,0.1-2.5,0.2h-128l-28.9,52.1l-1.3,2c-1.5,1.6-1.7,2.1-3.5,3.4c-1.3,0.9-2.8,1.7-4.4,2.1
	c-0.8,0.2-1.6,0.4-2.4,0.6s-1.6,0.1-2.4,0.2H212l8.4,15.4h106.3c7.2-39.4,41.8-69.2,83.2-69.2C456.6,322.3,494.5,360.2,494.5,406.9z
	 M121,360.9l-21.3,56.2l-1.1,2.3c-0.5,0.7-0.9,1.4-1.4,2.1c-1.1,1.3-2.3,2.5-3.7,3.4c-0.7,0.5-1.4,0.9-2.2,1.2
	c-1.5,0.7-3.2,1.1-4.9,1.3c-1.7,0.2-3.4,0.1-5-0.2c-0.8-0.2-1.6-0.4-2.4-0.7c-1.6-0.6-3.1-1.4-4.4-2.5c-1.3-1.1-2.5-2.3-3.4-3.7
	c-0.9-1.4-1.6-3-2.1-4.6c-0.4-1.6-0.6-3.3-0.6-5c0-0.8,0.1-1.7,0.3-2.5c0.2-0.8,0.5-1.6,0.7-2.4l21.6-57.1c-2.2-0.2-4.3-0.4-6.5-0.4
	c-32.3,0-58.6,26.2-58.6,58.6c0,32.3,26.3,58.6,58.6,58.6c32.3,0,58.6-26.2,58.6-58.6C143.2,388.3,134.5,371.7,121,360.9z
	 M287.3,344l19.2-34.7h-131l18.9,34.7H287.3z M468.5,406.9c0-32.3-26.3-58.6-58.6-58.6c-27,0-49.8,18.3-56.6,43.2H414l2.5,0.2
	c0.8,0.2,1.7,0.3,2.5,0.6c0.8,0.3,1.6,0.6,2.3,1c1.5,0.8,2.9,1.8,4.1,3c1.2,1.2,2.2,2.6,3,4.1c0.8,1.5,1.3,3.1,1.6,4.8
	c0.1,0.8,0.2,1.7,0.2,2.5c0,1.7-0.3,3.4-0.8,5c-0.5,1.6-1.3,3.1-2.3,4.5c-1,1.4-2.2,2.6-3.6,3.6c-1.4,1-2.9,1.8-4.5,2.3
	c-0.8,0.3-1.6,0.5-2.5,0.6c-0.8,0.1-1.7,0.1-2.5,0.2h-60.2c7.3,24.1,29.6,41.7,56.1,41.7C442.3,465.4,468.5,439.2,468.5,406.9z"/>
</svg>
