<?xml version="1.0" encoding="utf-8"?>
<!-- Generator: Adobe Illustrator 17.1.0, SVG Export Plug-In . SVG Version: 6.00 Build 0)  -->
<!DOCTYPE svg PUBLIC "-//W3C//DTD SVG 1.1//EN" "http://www.w3.org/Graphics/SVG/1.1/DTD/svg11.dtd">
<svg version="1.1" id="Layer_1" xmlns="http://www.w3.org/2000/svg" xmlns:xlink="http://www.w3.org/1999/xlink" x="0px" y="0px"
	 viewBox="0 0 600 600" enable-background="new 0 0 600 600" xml:space="preserve">
<path fill="#010101" d="M589.7,321.9h-3.2v-41.5c0-5.4-4.3-9.7-9.7-9.7c0,0-228.1,0-266.1,0c-3.7,0-6.7-3-6.7-6.7
	c0-15,0-51.2,0-68.6c0-5.3-4.3-9.5-9.5-9.5c-19,0-60.9,0-73.3,0c-2.3,0-4.4,0.8-6.2,2.1c-15.3,12-89.6,70.3-89.6,70.3l-98.9,12.4
	c-5.4,0-9.7,4.3-9.7,9.7v5.6c0.1,0-5.6,33.4-5.6,33.4c0,0,0,2.7,0,2.7s-2.6,0-5.3,0c-1.6,0-3.1,0.6-4.2,1.7C0.6,324.9,0,326.4,0,328
	c0,7.8,0,21.3,0,29.1c0,3.2,2.6,5.9,5.8,5.9c10,0.1,29.3,0.2,29.3,0.2h26.8c0,28.1,22.8,50.9,51,50.9c28.1,0,51-22.8,51-50.9h268.6
	c0,28.1,22.8,50.9,51,50.9c28.1,0,51-22.8,51-50.9h55.4c5.7,0,10.3-4.6,10.3-10.3v-20.6C600,326.6,595.4,321.9,589.7,321.9z
	 M112.9,391.2c-15.5,0-28.1-12.6-28.1-28.1H141C141,378.7,128.4,391.2,112.9,391.2z M281.4,254.6c0,2.8-2.2,5-5,5
	c-18.3,0-75.1,0-103.9,0c-2.1,0-4-1.3-4.7-3.3c-0.7-2,0-4.2,1.6-5.5c17.6-14,47.1-36.7,54.2-42.3c0.9-0.7,2-1.1,3.1-1.1
	c7.9,0,37.1,0,49.7,0c2.8,0,5,2.2,5,5C281.4,222.9,281.4,244,281.4,254.6z M483.4,391.2c-15.5,0-28.1-12.6-28.1-28.1h56.2
	C511.5,378.7,498.9,391.2,483.4,391.2z"/>
</svg>
