<?xml version="1.0" encoding="utf-8"?>
<!-- Generator: Adobe Illustrator 17.1.0, SVG Export Plug-In . SVG Version: 6.00 Build 0)  -->
<!DOCTYPE svg PUBLIC "-//W3C//DTD SVG 1.1//EN" "http://www.w3.org/Graphics/SVG/1.1/DTD/svg11.dtd">
<svg version="1.1" id="Layer_1" xmlns="http://www.w3.org/2000/svg" xmlns:xlink="http://www.w3.org/1999/xlink" x="0px" y="0px"
	 viewBox="0 0 600 600" enable-background="new 0 0 600 600" xml:space="preserve">
<path d="M212.1,188.4c-28.1,0-44.8,15.5-44.8,41.5v43.3c0,26,16.8,41.5,44.8,41.5s44.8-15.5,44.8-41.5v-43.3
	C257,203.9,240.2,188.4,212.1,188.4z M224.4,273.2c0,6.6-2.1,10.7-12.3,10.7c-10,0-12-3.9-12-10.7v-43.3c0-6.8,2-10.7,12-10.7
	c10.2,0,12.3,4.1,12.3,10.7V273.2z M372.4,194.2c0,2.8-0.6,5.3-1.8,7.7L261.2,413.3c-2.9,5.7-8.5,9.2-15,9.2h0
	c-9,0-16.6-7.4-16.6-16.1c0-2.5,0.6-5,1.8-7.4L341.3,186c2.5-5.3,7.7-8.5,14-8.5C363.5,177.5,372.4,184.2,372.4,194.2z M387.9,289.3
	c-28.1,0-44.8,15.5-44.8,41.5v43.3c0,26,16.8,41.5,44.8,41.5c28.1,0,44.8-15.5,44.8-41.5v-43.3C432.7,304.8,416,289.3,387.9,289.3z
	 M400.1,374.1c0,6.6-2.1,10.7-12.2,10.7c-3,0-7.1-0.4-9.4-2.5c-1.7-1.5-2.6-4.3-2.6-8.2v-43.3c0-3.9,0.9-6.7,2.6-8.2
	c2.3-2,6.4-2.5,9.4-2.5c10.2,0,12.2,4.1,12.2,10.7V374.1z M536.4,224.1l11.3-78.8c2.1-14.4-7.8-27.8-22.3-30.3l-79.3-13.8L408.4,31
	c-6.9-12.8-22.8-18-36.1-11.6L300,54.3l-72.3-34.9c-13.2-6.4-29.2-1.3-36.1,11.6l-37.7,70.3L74.6,115c-14.5,2.5-24.4,15.9-22.3,30.3
	l11.3,78.8l-56,57.2c-10.2,10.5-10.2,27,0,37.5l56,57.2l-11.3,78.8c-2.1,14.4,7.8,27.8,22.3,30.3l79.3,13.7l37.7,70.3
	c6.9,12.8,22.9,18,36.1,11.6l72.3-34.9l72.3,34.9c3.9,1.9,7.9,2.7,12,2.7c9.8,0,19.2-5.2,24.1-14.3l37.7-70.3l79.3-13.7
	c14.5-2.5,24.4-15.9,22.3-30.3l-11.3-78.8l55.9-57.2c10.2-10.5,10.2-27,0-37.5L536.4,224.1z M504.9,352.2
	c-6.4,6.5-9.4,15.6-8.1,24.6l10.3,72l-72.4,12.6c-9,1.6-16.8,7.2-21.1,15.2l-34.5,64.2l-66-31.9c-4.1-2-8.6-3-13.1-3s-8.9,1-13.1,3
	l-66,31.9l-34.4-64.2c-4.3-8-12.1-13.6-21.1-15.2l-72.4-12.6l10.3-72c1.3-9-1.7-18-8.1-24.6L44,300l51.1-52.2
	c6.4-6.5,9.4-15.6,8.1-24.6l-10.3-71.9l72.4-12.6c9-1.6,16.8-7.2,21.1-15.2l34.5-64.2l66,31.9c8.2,4,17.9,4,26.1,0l66-31.9
	l34.5,64.2c4.3,8,12.1,13.6,21.1,15.2l72.4,12.6l-10.3,72c-1.3,9,1.7,18,8.1,24.6L556,300L504.9,352.2z"/>
</svg>
