<?xml version="1.0" encoding="utf-8"?>
<!-- Generator: Adobe Illustrator 17.1.0, SVG Export Plug-In . SVG Version: 6.00 Build 0)  -->
<!DOCTYPE svg PUBLIC "-//W3C//DTD SVG 1.1//EN" "http://www.w3.org/Graphics/SVG/1.1/DTD/svg11.dtd">
<svg version="1.1" id="Layer_1" xmlns="http://www.w3.org/2000/svg" xmlns:xlink="http://www.w3.org/1999/xlink" x="0px" y="0px"
	 viewBox="0 0 600 600" enable-background="new 0 0 600 600" xml:space="preserve">
<path d="M600,300c0,45.5-37.6,82.3-84,82.3s-84-36.9-84-82.3s37.6-82.3,84-82.3S600,254.5,600,300z M168,300
	c0-45.5-37.6-82.3-84-82.3c-46.4,0-84,36.8-84,82.3s37.6,82.3,84,82.3C130.4,382.3,168,345.5,168,300z M384,300
	c0-45.5-37.6-82.3-84-82.3c-46.4,0-84,36.8-84,82.3s37.6,82.3,84,82.3C346.4,382.3,384,345.5,384,300z"/>
</svg>
