<?xml version="1.0" encoding="utf-8"?>
<!-- Generator: Adobe Illustrator 20.0.0, SVG Export Plug-In . SVG Version: 6.00 Build 0)  -->
<svg version="1.1" id="Layer_1" xmlns="http://www.w3.org/2000/svg" xmlns:xlink="http://www.w3.org/1999/xlink" x="0px" y="0px"
	 viewBox="0 0 600 600" enable-background="new 0 0 600 600" xml:space="preserve">
<path id="SvgjsPath1037" d="M301.2,340.4c4.2,0,8.8-1.4,12.5-3.7l0.9-0.9c0,0,0.5,0,0.5-0.5l11.5-9.2l273-226.3
	c-0.5-0.9-1.4-1.4-2.8-1.4H3.2c-0.9,0-1.4,0.5-1.8,0.9l285.5,236c3.7,3.2,8.8,5.1,13.9,5.1H301.2z M0,130.3V466l204.6-166.3L0,130.3
	z M395.8,301.2L600,466V131.6L395.8,301.2z M376.4,317.3L600,497.9v0.5c0,1.8-1.4,3.2-2.8,3.2H3.2c-1.8,0-3.2-1.4-3.2-3.2v-0.5
	l224-182l47.1,38.8c7.9,6.9,18.5,10.6,29.6,10.6c11.5,0,22.2-3.7,30-10.6L376.4,317.3z"/>
</svg>
