<?xml version="1.0" encoding="utf-8"?>
<!-- Generator: Adobe Illustrator 17.1.0, SVG Export Plug-In . SVG Version: 6.00 Build 0)  -->
<!DOCTYPE svg PUBLIC "-//W3C//DTD SVG 1.1//EN" "http://www.w3.org/Graphics/SVG/1.1/DTD/svg11.dtd">
<svg version="1.1" id="Layer_1" xmlns="http://www.w3.org/2000/svg" xmlns:xlink="http://www.w3.org/1999/xlink" x="0px" y="0px"
	 viewBox="0 0 600 600" enable-background="new 0 0 600 600" xml:space="preserve">
<path d="M402.9,455h-4.5v-22h4.7l9.7,14.7V433h4.5v22h-4.8l-9.6-14.3V455z M375.1,437.7l4.7,17.3h4.6l4.7-17.3V455h4.5v-22h-7.2
	l-4.3,15l-4.3-15h-7.2v22h4.5V437.7z M315.4,454.6c-1.1-7.7-1-15.7,0.3-23.4c1.1-6.7,3.2-13.3,6-19.4c3.4-7.3,8-14,13.5-19.6
	c5.5-5.7,11.9-10.4,18.9-13.8c5.6-2.8,11.5-4.7,17.6-5.8c3.3-0.6,6.6-0.9,9.9-1c0.6,0,1.2,0,1.8,0c3.3,0,6.7,0.3,10,0.8
	c6.1,1,12.1,2.9,17.7,5.6c6.8,3.2,13,7.7,18.4,13c5.6,5.5,10.4,12.1,13.9,19.3c3.1,6.2,5.3,12.8,6.6,19.6c1.5,7.8,1.7,15.9,0.7,23.8
	c-0.9,7.4-2.9,14.6-6,21.3c-3.5,7.8-8.3,14.8-14,20.8c-6.1,6.3-13.3,11.4-21.1,14.9c-8.3,3.7-17.2,5.6-26.1,5.7
	c-9,0.1-17.9-1.8-26.3-5.4c-7.9-3.4-15.1-8.4-21.3-14.7c-5.9-5.9-10.7-12.9-14.3-20.6C318.5,469.1,316.4,461.9,315.4,454.6z
	 M338.7,450.4c0.6,4.7,1.9,9.3,3.8,13.6c2.3,5.2,5.5,9.9,9.3,13.9c4,4.1,8.7,7.5,13.9,9.8c5.4,2.4,11.2,3.7,17.1,3.7
	c5.9,0,11.7-1.1,17.2-3.5c5.1-2.2,9.8-5.4,13.8-9.4c3.9-3.9,7.2-8.6,9.6-13.7c2-4.3,3.3-8.8,4-13.5c0.8-5.5,0.7-11.1-0.3-16.5
	c-0.8-4.5-2.3-9-4.4-13c-2.3-4.5-5.3-8.7-8.8-12.2c-3.4-3.4-7.3-6.2-11.5-8.4c-3.6-1.8-7.5-3.1-11.5-3.9c-2.2-0.4-4.5-0.6-6.8-0.7
	c-0.4,0-0.8,0-1.2,0c-2.2,0-4.4,0.2-6.5,0.5c-4,0.6-7.9,1.9-11.6,3.6c-4.2,2-8.1,4.7-11.5,8c-3.7,3.5-6.8,7.6-9.2,12.2
	c-2.1,4-3.6,8.2-4.6,12.6C338.2,439.1,338,444.8,338.7,450.4z M355.8,455h4.8v-18.3h7V433h-18.9v3.7h7V455z M178.4,329H600v230.1
	H266.5h-88.1V329z M576.4,495.4L576.4,495.4c-4.6,2-9,4.4-13.1,7.4c-7.1,5.2-13.2,12-17.9,19.8c-2.2,3.6-4,7.4-5.5,11.4l0,0h36.4
	V495.4z M540,354c4.4,12.1,12.3,22.6,22.1,30.3c4.4,3.4,9.2,6.2,14.3,8.4l0,0V354H540z M202,392.6c0.6-0.3,1.2-0.5,1.8-0.8
	c3.6-1.6,7-3.6,10.3-5.9c6.9-4.9,12.9-11.2,17.6-18.4c2.7-4.2,5-8.7,6.8-13.5l0,0H202V392.6z M202,469.1c1.9,0.6,3.8,1.2,5.7,1.9
	c12.7,4.8,24.3,12.6,33.8,22.9c9.1,9.8,16,21.8,20.3,34.7c0.6,1.8,1.1,3.6,1.6,5.5h251.8c0.6-2.4,1.3-4.8,2.1-7.1
	c4.7-13.6,12.4-25.9,22.4-35.9c9-9,19.9-16,31.6-20.3c1.7-0.6,3.4-1.2,5.2-1.7v-50.1c-1.7-0.5-3.5-1.1-5.2-1.7
	c-12.6-4.6-24.1-12.3-33.5-22.3c-9.4-10-16.7-22.2-21-35.5c-0.6-1.8-1.1-3.6-1.6-5.5H263.3c-0.5,2-1.1,4-1.8,6
	c-4.5,13.5-11.9,25.8-21.6,35.8c-9.3,9.6-20.5,17-32.8,21.5c-1.7,0.6-3.4,1.2-5.2,1.7V469.1z M202,534h36.4c-0.2-0.7-0.5-1.3-0.8-2
	c-1.5-3.7-3.3-7.2-5.4-10.5c-4.6-7.4-10.6-13.9-17.6-19c-4-2.9-8.2-5.3-12.7-7.2l0,0V534z M1.6,260.6c-0.6-1.8-0.9-3.6-1-5.5
	c-0.4-65.8-1.2-131.6,0-197.4c0.1-2.2,0.5-4.4,1.4-6.4c1.7-4.1,5-7.3,8.9-8.8c1.7-0.6,3.4-1,5.2-1c97.7-0.7,195.3-0.7,293,0
	c1.8,0,3.7,0.4,5.4,1.1c4,1.6,7.2,4.9,8.9,9.1c0.8,2,1.2,4.1,1.2,6.3c0.4,65.8,1.2,131.6,0,197.4c-0.1,2.2-0.5,4.4-1.4,6.4
	c-1.7,4.1-5,7.3-8.9,8.8c-1.7,0.6-3.4,1-5.2,1c-97.7,0.7-195.5,2-293.2,0c-2.1-0.1-4.2-0.6-6.1-1.5C6.1,268.2,3,264.8,1.6,260.6z
	 M22.6,94.8h280v-30h-280V94.8z M22.6,248.2h280v-100h-280V248.2z M80.1,323.2c0.1-0.8,0-1,0.3-1.8c0.5-1.8,1.9-3.2,3.5-3.7
	c0.7-0.3,0.9-0.2,1.7-0.3c0.3,0,0.6,0,0.9,0.1c0.7,0.2,1,0.2,1.6,0.6c1.3,0.7,2.3,1.9,2.7,3.4c0.2,0.8,0.2,1,0.3,1.8v11.7
	c0,0.3,0,0.6-0.1,0.9c-0.2,1.2-0.7,2.3-1.5,3.2c-0.4,0.4-0.9,0.8-1.4,1.1c-0.5,0.3-1.1,0.5-1.6,0.6c-1.7,0.3-3.5-0.3-4.8-1.6
	c-0.4-0.4-0.8-0.9-1-1.5c-0.3-0.5-0.4-1.1-0.5-1.7c0-0.3,0-0.6-0.1-0.9V323.2z M378.9,162.2c0.3,0.1,0.6,0.1,0.9,0.1h11
	c0.3,0,0.6,0,0.9-0.1c0.9-0.1,1.7-0.5,2.4-1c0.5-0.4,0.9-0.8,1.2-1.3c0.3-0.5,0.6-1,0.8-1.6c0.2-0.6,0.3-1.2,0.3-1.8
	c0-1.5-0.6-3-1.6-4.1c-0.6-0.6-1.4-1.1-2.2-1.4c-0.3-0.1-0.6-0.1-0.8-0.2c-0.3,0-0.6,0-0.9-0.1h-11c-0.3,0-0.6,0-0.9,0.1
	c-0.6,0.1-1.1,0.3-1.6,0.6c-1.6,0.8-2.7,2.5-2.9,4.3c-0.1,0.6-0.1,1.2,0,1.8c0.1,0.6,0.3,1.2,0.5,1.7c0.3,0.5,0.6,1,1,1.5
	C376.7,161.5,377.8,162.1,378.9,162.2z M412.8,162.3h11c0.3,0,0.6,0,0.9-0.1c0.9-0.1,1.7-0.5,2.4-1c0.5-0.4,0.9-0.8,1.2-1.3
	c0.3-0.5,0.6-1,0.8-1.6c0.2-0.6,0.3-1.2,0.3-1.8c0-1.5-0.6-3-1.6-4.1c-0.6-0.6-1.4-1.1-2.2-1.4c-0.3-0.1-0.6-0.1-0.8-0.2
	c-0.3,0-0.6,0-0.9-0.1h-11c-0.3,0-0.6,0-0.9,0.1c-0.6,0.1-1.1,0.3-1.6,0.6c-0.5,0.3-1,0.6-1.4,1.1c-0.4,0.4-0.8,0.9-1,1.5
	c-0.8,1.7-0.8,3.6,0,5.3c0.3,0.5,0.6,1,1,1.5c0.8,0.9,1.9,1.4,3,1.6C412.2,162.3,412.5,162.3,412.8,162.3z M462.3,256.3
	c-0.1-0.8,0-1-0.3-1.8c-0.4-1.5-1.4-2.7-2.7-3.4c-0.7-0.4-0.9-0.4-1.6-0.6c-0.3,0-0.6,0-0.9-0.1c-0.8,0.1-1,0-1.7,0.3
	c-1.7,0.6-3,2-3.5,3.7c-0.2,0.8-0.2,1-0.3,1.8V268c0,0.3,0,0.6,0.1,0.9c0.1,0.6,0.3,1.2,0.5,1.7c0.3,0.5,0.6,1,1,1.5
	c0.4,0.4,0.9,0.8,1.4,1.1c1.6,0.8,3.4,0.8,5,0c0.5-0.3,1-0.6,1.4-1.1c0.8-0.9,1.4-2,1.5-3.2c0-0.3,0-0.6,0.1-0.9V256.3z
	 M457.7,162.2c0.9-0.1,1.7-0.5,2.4-1c0.5-0.4,0.9-0.8,1.2-1.3c0.9-1.2,1.2-2.8,1-4.3c-0.1-0.6-0.3-1.2-0.5-1.7c-0.3-0.5-0.6-1-1-1.5
	c-0.6-0.6-1.4-1.1-2.2-1.4c-0.3-0.1-0.6-0.1-0.8-0.2c-0.3,0-0.6,0-0.9-0.1h-11c-0.3,0-0.6,0-0.9,0.1c-0.6,0.1-1.1,0.3-1.6,0.6
	c-0.5,0.3-1,0.6-1.4,1.1c-0.4,0.4-0.8,0.9-1,1.5c-0.8,1.7-0.8,3.6,0,5.3c0.3,0.5,0.6,1,1,1.5c0.8,0.9,1.9,1.4,3,1.6
	c0.3,0.1,0.6,0.1,0.9,0.1h11C457.1,162.3,457.4,162.3,457.7,162.2z M462.3,221.3c-0.1-0.8,0-1-0.3-1.8c-0.4-1.5-1.4-2.7-2.7-3.4
	c-0.7-0.4-0.9-0.4-1.6-0.6c-0.3,0-0.6-0.1-0.9-0.1c-0.8,0.1-1,0-1.7,0.3c-1.7,0.6-3,2-3.5,3.7c-0.2,0.8-0.2,1-0.3,1.8V233
	c0,0.3,0,0.6,0.1,0.9c0.2,1.2,0.7,2.3,1.5,3.2c0.4,0.4,0.9,0.8,1.4,1.1c0.5,0.3,1.1,0.5,1.6,0.6c1.7,0.3,3.5-0.3,4.8-1.6
	c0.4-0.4,0.8-0.9,1-1.5c0.3-0.5,0.4-1.1,0.5-1.7c0-0.3,0-0.6,0.1-0.9V221.3z M459.3,181.1c-0.7-0.4-0.9-0.4-1.6-0.6
	c-0.3,0-0.6-0.1-0.9-0.1c-0.8,0.1-1,0-1.7,0.3c-1.7,0.6-3,2-3.5,3.7c-0.2,0.8-0.2,1-0.3,1.8V198c0,0.3,0,0.6,0.1,0.9
	c0.1,0.6,0.3,1.2,0.5,1.7c0.3,0.5,0.6,1,1,1.5c0.4,0.4,0.9,0.8,1.4,1.1c1.6,0.8,3.4,0.8,5,0c0.5-0.3,1-0.6,1.4-1.1
	c0.8-0.9,1.4-2,1.5-3.2c0-0.3,0-0.6,0.1-0.9v-11.7c-0.1-0.8,0-1-0.3-1.8C461.6,183,460.6,181.8,459.3,181.1z M459.3,286.1
	c-0.7-0.4-0.9-0.4-1.6-0.6c-0.3,0-0.6,0-0.9-0.1c-0.8,0.1-1,0-1.7,0.3c-1.7,0.6-3,2-3.5,3.7c-0.2,0.8-0.2,1-0.3,1.8V303
	c0,0.3,0,0.6,0.1,0.9c0.2,1.2,0.7,2.3,1.5,3.2c0.4,0.4,0.9,0.8,1.4,1.1c1.6,0.8,3.4,0.8,5,0c0.5-0.3,1-0.6,1.4-1.1
	c0.4-0.4,0.8-0.9,1-1.5c0.3-0.5,0.4-1.1,0.5-1.7c0-0.3,0-0.6,0.1-0.9v-11.7c-0.1-0.8,0-1-0.3-1.8
	C461.6,288.1,460.6,286.8,459.3,286.1z M80.1,369.9c0,0.3,0,0.6,0.1,0.9c0.2,1.2,0.7,2.3,1.5,3.2c0.4,0.4,0.9,0.8,1.4,1.1
	c0.5,0.3,1.1,0.5,1.6,0.6c1.7,0.3,3.5-0.3,4.8-1.6c0.4-0.4,0.7-0.9,1-1.5c0.3-0.5,0.4-1.1,0.5-1.7c0-0.3,0-0.6,0.1-0.9v-11.7
	c-0.1-0.8,0-1-0.3-1.8c-0.4-1.5-1.4-2.7-2.7-3.4c-0.7-0.4-0.9-0.4-1.6-0.6c-0.3,0-0.6,0-0.9-0.1c-0.8,0.1-1,0-1.7,0.3
	c-1.7,0.6-3,2-3.5,3.7c-0.2,0.8-0.2,1-0.3,1.8V369.9z M80.1,404.9c0,0.3,0,0.6,0.1,0.9c0.2,1.2,0.7,2.3,1.5,3.2
	c0.4,0.4,0.9,0.8,1.4,1.1c0.5,0.3,1.1,0.5,1.6,0.6c1.7,0.3,3.5-0.3,4.8-1.6c0.4-0.4,0.7-0.9,1-1.5c0.3-0.5,0.4-1.1,0.5-1.7
	c0-0.3,0-0.6,0.1-0.9v-11.7c-0.1-0.8,0-1-0.3-1.8c-0.4-1.5-1.4-2.7-2.7-3.4c-0.7-0.4-0.9-0.4-1.6-0.6c-0.3,0-0.6,0-0.9-0.1
	c-0.8,0.1-1,0-1.7,0.3c-1.7,0.6-3,2-3.5,3.7c-0.2,0.8-0.2,1-0.3,1.8V404.9z M86.4,305.6c0.6-0.1,1.1-0.3,1.6-0.6
	c0.5-0.3,1-0.6,1.4-1.1c0.4-0.4,0.7-0.9,1-1.5c0.3-0.5,0.4-1.1,0.5-1.7c0-0.3,0-0.6,0.1-0.9v-11.7c-0.1-0.8,0-1-0.3-1.8
	c-0.4-1.5-1.4-2.7-2.7-3.4c-0.7-0.4-0.9-0.4-1.6-0.6c-0.3,0-0.6,0-0.9-0.1c-0.8,0.1-1,0-1.7,0.3c-1.7,0.6-3,2-3.5,3.7
	c-0.2,0.8-0.2,1-0.3,1.8v11.7c0,0.3,0,0.6,0.1,0.9c0.2,1.2,0.7,2.3,1.5,3.2C82.9,305.3,84.7,305.9,86.4,305.6z M345.9,162.2
	c0.3,0.1,0.6,0.1,0.9,0.1h11c0.3,0,0.6,0,0.9-0.1c0.9-0.1,1.7-0.5,2.4-1c0.5-0.4,0.9-0.8,1.2-1.3c0.3-0.5,0.6-1,0.8-1.6
	c0.4-1.5,0.3-3.1-0.3-4.5c-0.3-0.5-0.6-1-1-1.5c-0.6-0.6-1.4-1.1-2.2-1.4c-0.3-0.1-0.6-0.1-0.8-0.2c-0.3,0-0.6,0-0.9-0.1h-11
	c-0.3,0-0.6,0-0.9,0.1c-0.6,0.1-1.1,0.3-1.6,0.6c-0.5,0.3-1,0.6-1.4,1.1c-1.2,1.3-1.8,3.2-1.5,5c0.1,0.6,0.3,1.2,0.5,1.7
	c0.3,0.5,0.6,1,1,1.5C343.6,161.5,344.7,162.1,345.9,162.2z M145.4,449.8c0.3,0,0.6,0,0.9,0.1h11c0.3,0,0.6,0,0.9-0.1
	c0.9-0.1,1.7-0.5,2.4-1c0.5-0.4,0.9-0.8,1.2-1.3c0.9-1.2,1.2-2.8,1-4.3c-0.1-0.6-0.3-1.2-0.5-1.7c-0.3-0.5-0.6-1-1-1.5
	c-0.6-0.7-1.4-1.1-2.2-1.4c-0.3-0.1-0.6-0.1-0.8-0.2c-0.3,0-0.6,0-0.9-0.1h-11c-0.3,0-0.6,0-0.9,0.1c-0.6,0.1-1.1,0.3-1.6,0.6
	c-0.5,0.3-1,0.6-1.4,1.1c-1.2,1.3-1.8,3.2-1.5,5c0.1,0.6,0.3,1.2,0.5,1.7c0.3,0.5,0.6,1,1,1.5C143.2,449,144.2,449.6,145.4,449.8z
	 M80.1,439.9c0,0.3,0,0.6,0.1,0.9c0.2,1.2,0.7,2.3,1.5,3.2c0.4,0.4,0.9,0.8,1.4,1.1c0.5,0.3,1.1,0.5,1.6,0.6
	c1.7,0.3,3.5-0.3,4.8-1.6c0.4-0.4,0.7-0.9,1-1.5c0.3-0.5,0.4-1.1,0.5-1.7c0-0.3,0-0.6,0.1-0.9v-11.7c-0.1-0.8,0-1-0.3-1.8
	c-0.4-1.5-1.4-2.7-2.7-3.4c-0.7-0.4-0.9-0.4-1.6-0.6c-0.3,0-0.6,0-0.9-0.1c-0.8,0.1-1,0-1.7,0.3c-1.7,0.6-3,2-3.5,3.7
	c-0.2,0.8-0.2,1-0.3,1.8V439.9z M113.2,449.8h11c0.3,0,0.6,0,0.9-0.1c0.9-0.1,1.7-0.5,2.4-1c1.2-0.9,2-2.3,2.2-3.8
	c0.1-0.6,0.1-1.2,0-1.8c-0.1-0.6-0.3-1.2-0.5-1.7c-0.3-0.5-0.6-1-1-1.5c-0.6-0.7-1.4-1.1-2.2-1.4c-0.3-0.1-0.6-0.1-0.8-0.2
	c-0.3,0-0.6,0-0.9-0.1h-11c-0.3,0-0.6,0-0.9,0.1c-0.6,0.1-1.1,0.3-1.6,0.6s-1,0.6-1.4,1.1c-0.4,0.4-0.8,0.9-1,1.5
	c-0.8,1.6-0.8,3.6,0,5.3c0.3,0.5,0.6,1,1,1.5c0.8,0.9,1.9,1.4,3,1.6C112.6,449.8,112.9,449.8,113.2,449.8z"/>
</svg>
