<?xml version="1.0" encoding="utf-8"?>
<!-- Generator: Adobe Illustrator 17.1.0, SVG Export Plug-In . SVG Version: 6.00 Build 0)  -->
<!DOCTYPE svg PUBLIC "-//W3C//DTD SVG 1.1//EN" "http://www.w3.org/Graphics/SVG/1.1/DTD/svg11.dtd">
<svg version="1.1" id="Layer_1" xmlns="http://www.w3.org/2000/svg" xmlns:xlink="http://www.w3.org/1999/xlink" x="0px" y="0px"
	 viewBox="0 0 600 600" enable-background="new 0 0 600 600" xml:space="preserve">
<path d="M176.9,206.6l-73.5,76.7h304.3c13.7,0,24.8,11.6,24.8,25.9s-11.1,25.9-24.8,25.9H103.4l73.5,76.7c9.7,10.1,9.7,26.5,0,36.6
	c-9.7,10.1-25.4,10.1-35.1,0L25.9,327.5c-9.7-10.1-9.7-26.5,0-36.6L141.8,170c4.8-5.1,11.2-7.6,17.6-7.6c6.4,0,12.7,2.5,17.6,7.6
	C186.6,180.1,186.6,196.5,176.9,206.6z M273.8,533.6c-17.6,0-31.8,14.9-31.8,33.2c0,18.3,14.2,33.2,31.8,33.2h275.8
	c17.6,0,31.8-14.9,31.8-33.2V33.2c0-18.3-14.2-33.2-31.8-33.2H273.8c-17.6,0-31.8,14.9-31.8,33.2s14.2,33.2,31.8,33.2h244v467.2
	H273.8z"/>
</svg>
