<?xml version="1.0" encoding="utf-8"?>
<!-- Generator: Adobe Illustrator 17.1.0, SVG Export Plug-In . SVG Version: 6.00 Build 0)  -->
<!DOCTYPE svg PUBLIC "-//W3C//DTD SVG 1.1//EN" "http://www.w3.org/Graphics/SVG/1.1/DTD/svg11.dtd">
<svg version="1.1" id="Layer_1" xmlns="http://www.w3.org/2000/svg" xmlns:xlink="http://www.w3.org/1999/xlink" x="0px" y="0px"
	 viewBox="0 0 600 600" enable-background="new 0 0 600 600" xml:space="preserve">
<path d="M279.9,52.4v90.9c8.3-2.1,20.3-4.2,36.2-4.2c17.7,0,37.8,6.6,48.3,32.4c7.7-2.8,19-5.1,34-3.7c31.5,3,42.7,23.3,46.5,46
	c17.6-1.5,31.4,1.9,42,10.4c13.8,11,21.1,29.4,22.9,57.9c2.6,41.8,3.5,64.2,3.5,114.4c0,125.9-67.3,198-70.2,201l-14-13.4
	c0.6-0.7,64.9-69.9,64.9-187.6c0-49.6-0.9-71.8-3.5-113.2c-1.4-22.3-6.5-36.7-15.6-43.9c-6.6-5.2-16-7.2-28.3-6.2
	c0,1.7,0.1,3.4,0.1,5.1V322h-19.4v-83.5c0-40.3-11.7-49.5-30.7-51.3c-12.9-1.2-21.8,1.1-27,3.2c1.3,7.5,2.1,15.9,2.1,25.6v77.4
	h-19.4v-77.4c0-51.4-20.6-57.3-36.1-57.3c-18,0-30,2.9-36.2,5v121.1h-19.4V52.4c0-22.8-11.2-33-36.2-33c-25,0-36.2,10.2-36.2,33
	v344.2h-19.4V261.3c-5.2-0.9-14.9-1.8-23.3-1.8c-18.5,0-31.3,15.8-34.1,42.2c-0.1,0.6-4.5,34.1-5.2,77.4
	c-0.9,55.7,8.7,79.1,30.4,110.6c30.2,43.7,93.8,94.6,94.5,95.1L219,600c-2.7-2.2-66.6-53.2-98.4-99.3c-23.7-34.4-34.8-61.4-33.8-122
	c0.7-44.4,5.2-78,5.4-79.4c3.9-36.5,24.4-59.3,53.3-59.3c6.9,0,16.1,0.6,23.3,1.6V52.4c0-33.8,19.7-52.4,55.5-52.4
	S279.9,18.6,279.9,52.4z"/>
</svg>
