<?xml version="1.0" encoding="utf-8"?>
<!-- Generator: Adobe Illustrator 17.1.0, SVG Export Plug-In . SVG Version: 6.00 Build 0)  -->
<!DOCTYPE svg PUBLIC "-//W3C//DTD SVG 1.1//EN" "http://www.w3.org/Graphics/SVG/1.1/DTD/svg11.dtd">
<svg version="1.1" id="Layer_1" xmlns="http://www.w3.org/2000/svg" xmlns:xlink="http://www.w3.org/1999/xlink" x="0px" y="0px"
	 viewBox="0 0 600 600" enable-background="new 0 0 600 600" xml:space="preserve">
<path d="M436.4,0c-3.8,0-7.5,0-11.3,0.1c-19.3,0.8-38.4,3.6-57.2,8c-12.9,3-25.5,6.7-38.1,10.8c-7.5,2.6-7.5,2.6-15,5.2
	c-7.5,2.8-14.8,5.9-22.4,8.4c-5.4,1.8-10.8,3.2-16.3,4.5c-24.4,5.5-49.7,6.8-74.7,6.6c-27.7-0.2-55.4-2.4-82.9-5.8V25.9
	c0-6.9-2.7-13.5-7.6-18.3C106.1,2.7,99.5,0,92.7,0c-6.9,0-13.5,2.7-18.3,7.6c-4.9,4.9-7.6,11.5-7.6,18.3v3.9v544.3
	c0,6.9,2.7,13.5,7.6,18.3c4.9,4.9,11.5,7.6,18.3,7.6c6.9,0,13.5-2.7,18.3-7.6c4.9-4.9,7.6-11.5,7.6-18.3V340.2
	c20.9,5,42.2,8.8,63.5,11.5c34,4.2,68.7,5.3,102.6-0.1c8.9-1.4,17.6-3.4,26.2-5.8c5.1-1.5,5.1-1.5,10.1-3.2c6.5-2.4,13-4.8,19.7-6.9
	c9.6-3,19.3-5.4,29.1-7.3c46.8-9.1,95.3-6,141.4,5.6c4,1.1,8,2.2,11.9,3.4c3.4,1.1,6.8,2.2,10.1,3.4v-311c-9.1-6.4-18.7-12-29-16.4
	C482.7,4.3,459.6,0.5,436.4,0z M486.6,281.3l-3.7-0.6c-29.6-4.1-59.4-5.5-89.2-2.8c-20.8,1.9-41.1,5.9-61.2,11.5
	c-5.8,1.7-5.8,1.7-11.5,3.6c-6.4,2.2-12.6,4.7-19.1,6.7c-8.1,2.5-16.3,4.4-24.7,5.7c-23.2,3.7-47,3.7-70.4,1.8
	c-29.8-2.4-59.3-7.9-88.3-15.3V84.8l4.1,0.5c31.4,3.4,62.9,5.6,94.4,4.8c28.7-0.7,57.2-3.8,84.8-11.7c5.2-1.6,5.1-1.6,10.3-3.4
	c10.7-4.1,21.4-8.3,32.3-11.9c27.6-9.1,56.2-15.7,85.3-16.5c3,0,3,0,6,0c14.7,0.3,29.1,2.3,43,6.9c2.6,0.9,5.2,1.9,7.8,3V281.3z"/>
</svg>
