<?xml version="1.0" encoding="utf-8"?>
<!-- Generator: Adobe Illustrator 17.1.0, SVG Export Plug-In . SVG Version: 6.00 Build 0)  -->
<!DOCTYPE svg PUBLIC "-//W3C//DTD SVG 1.1//EN" "http://www.w3.org/Graphics/SVG/1.1/DTD/svg11.dtd">
<svg version="1.1" id="Layer_1" xmlns="http://www.w3.org/2000/svg" xmlns:xlink="http://www.w3.org/1999/xlink" x="0px" y="0px"
	 viewBox="0 0 600 600" enable-background="new 0 0 600 600" xml:space="preserve">
<path d="M33.1,516h533.8c18.3,0,33.1-14.9,33.1-33.2V117.2c0-18.3-14.8-33.2-33.1-33.2H33.1C14.8,84,0,98.9,0,117.2v365.7
	C0,501.2,14.8,516,33.1,516z M37.1,121.5h525.8v116.7H519c2.3-6.3,3.6-13.1,3.6-20.3c0-31.9-25.6-57.8-57.2-57.8
	c-14.3,0-28,5.4-38.6,15.2L368,231.2l-58.6-55.7l-0.2-0.2c-10.6-9.8-24.3-15.2-38.6-15.2c-31.5,0-57.2,25.9-57.2,57.8
	c0,7.1,1.3,13.9,3.6,20.3h-180V121.5z M485.5,218c0,10.9-8.5,19.8-19.1,20.3h-1.5l-9.8-0.2l-0.1,0.2h-40l37.1-35.2
	c3.8-3.4,8.6-5.3,13.5-5.3C476.5,197.7,485.5,206.8,485.5,218z M321.2,238.2h-40l-0.1-0.2l-9.8,0.2h-1.5
	c-10.6-0.5-19.1-9.4-19.1-20.3c0-11.2,9-20.3,20.1-20.3c5,0,9.8,1.9,13.5,5.3L321.2,238.2z M37.1,478.5V275.8h232c0.5,0,1,0,1.5,0
	c0.3,0,0.7,0,1,0h3.2c0.2,0,0.5,0,0.8,0h11l25.9,0v84.6h37.1v-84.6h37.1v134.7h37.1V275.8l25.9,0l11,0c0.6,0,1.2,0,1.9,0h2
	c0.3,0,0.7,0,1,0c0.5,0,1,0,1.5,0h95.9v202.7L37.1,478.5L37.1,478.5z"/>
</svg>
