<?xml version="1.0" encoding="utf-8"?>
<!-- Generator: Adobe Illustrator 17.1.0, SVG Export Plug-In . SVG Version: 6.00 Build 0)  -->
<!DOCTYPE svg PUBLIC "-//W3C//DTD SVG 1.1//EN" "http://www.w3.org/Graphics/SVG/1.1/DTD/svg11.dtd">
<svg version="1.1" id="Layer_1" xmlns="http://www.w3.org/2000/svg" xmlns:xlink="http://www.w3.org/1999/xlink" x="0px" y="0px"
	 viewBox="0 0 600 600" enable-background="new 0 0 600 600" xml:space="preserve">
<path d="M0,209.5v86.1c0,21.3,12.4,39.8,30.3,48.7v197.1c0,30,24.4,54.3,54.3,54.3h434.7c30,0,54.4-24.4,54.4-54.3V342
	c15.7-9.5,26.3-26.8,26.3-46.5v-86.1c0-30-24.3-54.3-54.3-54.3h-67.2c23.9-15,39.7-39.8,39.7-67.8c0-45.8-42-83-93.6-83
	c-43.7,0-95.6,75-124.5,123.5C271.1,79.3,219.2,4.3,175.5,4.3c-51.6,0-93.6,37.3-93.6,83c0,28,15.7,52.7,39.7,67.8H54.4
	C24.4,155.1,0,179.5,0,209.5z M424.5,53.8c23.9,0,44.1,15.4,44.1,33.5c0,18.2-20.2,33.5-44.1,33.5h-61.1
	C388.4,84.7,414.2,56,424.5,53.8z M324.8,204.6h220.9c2.7,0,4.8,2.2,4.8,4.8v86.1c0,2.7-2.2,4.8-4.8,4.8H324.8V204.6z M324.8,349.9
	h199.5v191.5c0,2.7-2.2,4.8-4.8,4.8H324.8V349.9z M275.2,546.2H84.6c-2.7,0-4.8-2.2-4.8-4.8V349.9h195.4V546.2z M174.8,53.8
	c10.9,2.2,36.7,30.9,61.8,67.1h-61.1c-23.9,0-44.1-15.3-44.1-33.5C131.4,69.2,151.6,53.8,174.8,53.8z M275.2,204.6v95.8H54.4
	c-2.7,0-4.8-2.1-4.8-4.8v-86.1c0-2.7,2.2-4.8,4.8-4.8H275.2z"/>
</svg>
