<?xml version="1.0" encoding="utf-8"?>
<!-- Generator: Adobe Illustrator 17.1.0, SVG Export Plug-In . SVG Version: 6.00 Build 0)  -->
<!DOCTYPE svg PUBLIC "-//W3C//DTD SVG 1.1//EN" "http://www.w3.org/Graphics/SVG/1.1/DTD/svg11.dtd">
<svg version="1.1" id="Layer_1" xmlns="http://www.w3.org/2000/svg" xmlns:xlink="http://www.w3.org/1999/xlink" x="0px" y="0px"
	 viewBox="0 0 600 600" enable-background="new 0 0 600 600" xml:space="preserve">
<path d="M58.9,397.2h7.3c9.4,72.5,73,128.7,149.7,128.7h14.1c7.5,17.1,24.9,29.2,45.1,29.2h49.6c27,0,49-21.5,49-47.8
	c0-26.4-22-47.8-49-47.8h-49.6c-20.2,0-37.6,12-45.1,29.1H216c-62.1,0-112.7-49.4-112.7-110V238.3c19.8-90.5,102.2-156,196.6-156
	c95,0,177.5,65.5,196.8,155.9v140.3c0,10.3,8.6,18.7,19.1,18.7h25.3c32.5,0,58.9-25.8,58.9-57.6V275c0-31.7-26.4-57.6-59-57.6
	l-10.1,0C503.1,116.6,408.4,44.9,299.9,44.9c-107.8,0-202.5,71.7-230.8,172.5l-10.2,0C26.4,217.5,0,243.3,0,275v64.7
	C0,371.4,26.4,397.2,58.9,397.2z M275.2,496.8h49.6c5.9,0,10.7,4.7,10.7,10.5c0,5.8-4.8,10.5-10.7,10.5h-49.6
	c-5.9,0-10.7-4.7-10.7-10.5C264.5,501.5,269.3,496.8,275.2,496.8z M534.9,254.8l6.1,0c11.4,0,20.7,9.1,20.7,20.2v64.6
	c0,11.1-9.3,20.2-20.7,20.2h-6.1V254.8z M38.3,275c0-11.1,9.3-20.2,20.6-20.2h6.1v105h-6.1c-11.4,0-20.7-9-20.7-20.2V275z"/>
</svg>
