<?xml version="1.0" encoding="utf-8"?>
<!-- Generator: Adobe Illustrator 17.1.0, SVG Export Plug-In . SVG Version: 6.00 Build 0)  -->
<!DOCTYPE svg PUBLIC "-//W3C//DTD SVG 1.1//EN" "http://www.w3.org/Graphics/SVG/1.1/DTD/svg11.dtd">
<svg version="1.1" id="Layer_1" xmlns="http://www.w3.org/2000/svg" xmlns:xlink="http://www.w3.org/1999/xlink" x="0px" y="0px"
	 viewBox="0 0 600 600" enable-background="new 0 0 600 600" xml:space="preserve">
<path d="M300,6.6c-19.2,0-38.9,1.9-58.7,5.7l3.4,18.7l3.5,18.7c17.5-3.4,34.7-5,51.6-5c72.4,0,138.1,29.9,185.6,78.2
	c30.4,31,53.4,69.4,66.1,112.3h-233c-51.7,0-93.7,42.6-93.7,95.3c0,41.4,27.4,77.7,66.8,88.4l271,73.5v5.6c0,16.3-6.7,30.4-17,40.7
	c-10.3,10.3-24.5,16.5-39.4,16.5c-4.8,0-9.7-0.6-14.7-2L95,445.8c-16.9-4.6-30.9-16.6-37.3-32.4c-12.9-31.4-20.2-65.8-20.2-101.9
	c0-20.7,2.4-42.1,7.5-63.9C68,148.1,149.3,68.8,248.2,49.7l-7-37.4C127.5,34.5,35.2,124.3,8.5,238.8C2.7,263.4,0,287.8,0,311.5
	c0,41.3,8.3,80.7,23,116.6c11.3,27.3,34.7,47,62.2,54.5l396.4,107.5c8.1,2.2,16.5,3.3,24.5,3.3c50.2-0.1,93.8-41.3,93.8-95.3V311.5
	C600,143.3,465.4,6.7,300,6.6z M301.2,382.1c-23-6.2-39-27.4-39-51.6c0.1-31.6,25.2-57.1,56.2-57.2h241.1c1.8,12.5,3,25.1,3,38.1
	V453L301.2,382.1z M337.2,330.5c0,10.5-8.4,19.1-18.7,19.1c-10.3,0-18.7-8.5-18.7-19.1s8.4-19.1,18.7-19.1
	C328.8,311.5,337.2,320,337.2,330.5z"/>
</svg>
