<?xml version="1.0" encoding="utf-8"?>
<!-- Generator: Adobe Illustrator 17.1.0, SVG Export Plug-In . SVG Version: 6.00 Build 0)  -->
<!DOCTYPE svg PUBLIC "-//W3C//DTD SVG 1.1//EN" "http://www.w3.org/Graphics/SVG/1.1/DTD/svg11.dtd">
<svg version="1.1" id="Layer_1" xmlns="http://www.w3.org/2000/svg" xmlns:xlink="http://www.w3.org/1999/xlink" x="0px" y="0px"
	 viewBox="0 0 600 600" enable-background="new 0 0 600 600" xml:space="preserve">
<path d="M277.3,85.7c-13.9,0-25.2,11.3-25.2,25.2v153c-11.4,8-18.9,21.2-18.9,36.1c0,24.3,19.8,44.1,44.1,44.1
	c6.7,0,12.9-1.6,18.6-4.3l87.7,50.6c4,2.3,8.3,3.4,12.6,3.4c8.7,0,17.2-4.5,21.9-12.6c7-12,2.8-27.5-9.2-34.4l-87.8-50.7
	c-1.2-13.3-8.1-25-18.5-32.2v-153C302.6,97,291.3,85.7,277.3,85.7z M277.3,318.9c-10.4,0-18.9-8.5-18.9-18.9
	c0-10.4,8.5-18.9,18.9-18.9c10.4,0,18.9,8.5,18.9,18.9C296.3,310.4,287.8,318.9,277.3,318.9z M461.3,249.6h37.1
	c-23-100.9-113.3-176.5-221.1-176.5C152.2,73.1,50.4,174.9,50.4,300c0,125.1,101.8,226.9,226.9,226.9c80.7,0,156.1-43.5,196.6-113.4
	c7-12.1,22.4-16.2,34.4-9.2c12.1,7,16.2,22.4,9.2,34.5C468.1,524.2,376,577.3,277.3,577.3C124.4,577.3,0,452.9,0,300
	S124.4,22.7,277.3,22.7c135.7,0,248.9,98,272.7,226.9h37.4c4.9,0,9.4,2.8,11.4,7.3c2.1,4.4,1.4,9.7-1.7,13.4l-63,75.6
	c-2.4,2.9-5.9,4.5-9.7,4.5c-3.8,0-7.3-1.7-9.7-4.5l-63-75.6c-3.1-3.8-3.8-9-1.7-13.4C452,252.4,456.4,249.6,461.3,249.6z"/>
</svg>
