<?xml version="1.0" encoding="utf-8"?>
<!-- Generator: Adobe Illustrator 17.1.0, SVG Export Plug-In . SVG Version: 6.00 Build 0)  -->
<!DOCTYPE svg PUBLIC "-//W3C//DTD SVG 1.1//EN" "http://www.w3.org/Graphics/SVG/1.1/DTD/svg11.dtd">
<svg version="1.1" id="Layer_1" xmlns="http://www.w3.org/2000/svg" xmlns:xlink="http://www.w3.org/1999/xlink" x="0px" y="0px"
	 viewBox="0 0 600 600" enable-background="new 0 0 600 600" xml:space="preserve">
<path d="M287.4,227c0-16.5-6.3-32.6-17.7-45.3c-25.3-28.2-44.2-58.8-56.2-90.9c-1.7-4.3-1-9.1,1.9-12.9c2.9-3.7,7.4-6,12.3-6h149.5
	c4.9,0,9.5,2.3,12.3,6c2.8,3.8,3.5,8.6,1.9,12.9c-12.1,32-31,62.6-56.2,90.9c-11.4,12.7-17.6,28.8-17.6,45.3
	c0,7.8-6.8,14.2-15.1,14.2C294.1,241.2,287.4,234.8,287.4,227z M531.1,579.4c0,11.4-9.4,20.6-20.9,20.6H89.8
	c-11.5,0-20.9-9.2-20.9-20.6c0-11.4,9.4-20.6,20.9-20.6h35.8v-63.2c0-64,35.7-122.8,100.4-165.6c8.1-5.3,13.1-16.8,13.1-30
	c0-13.2-5-24.7-13.1-30c-64.8-42.8-100.4-101.6-100.4-165.6V41.2H89.8c-11.5,0-20.9-9.2-20.9-20.6C68.9,9.2,78.3,0,89.8,0h420.4
	c11.5,0,20.9,9.2,20.9,20.6c0,11.4-9.4,20.6-20.9,20.6h-35.8v63.2c0,64-35.7,122.8-100.4,165.6c-8.1,5.3-13.1,16.8-13.1,30
	c0,13.2,5,24.7,13.1,30c64.8,42.8,100.4,101.6,100.4,165.6v63.2h35.8C521.7,558.8,531.1,568,531.1,579.4z M167.5,495.6v19.6
	c20-21,45.2-41.3,76-60.5c20.5-12.7,31.7-28.8,31.7-45.3c0-7.8,12.3-14.2,27.2-14.2c15,0,27.1,6.3,27.1,14.2
	c0,16.5,11.3,32.6,31.9,45.3c28.5,17.7,51.9,36.4,71.2,55.6v-14.8c0-67.2-51.3-111.2-81.9-131.4c-19.8-13.1-31.6-37.1-31.6-64.2
	c0-27.1,11.8-51.1,31.6-64.2c30.6-20.2,81.9-64.2,81.9-131.4V41.2H167.5v63.2c0,67.2,51.3,111.2,81.9,131.4
	c19.8,13.1,31.6,37.1,31.6,64.2c0,27.1-11.8,51.1-31.6,64.2C218.8,384.4,167.5,428.4,167.5,495.6z"/>
</svg>
