<?xml version="1.0" encoding="utf-8"?>
<!-- Generator: Adobe Illustrator 17.1.0, SVG Export Plug-In . SVG Version: 6.00 Build 0)  -->
<!DOCTYPE svg PUBLIC "-//W3C//DTD SVG 1.1//EN" "http://www.w3.org/Graphics/SVG/1.1/DTD/svg11.dtd">
<svg version="1.1" id="Layer_1" xmlns="http://www.w3.org/2000/svg" xmlns:xlink="http://www.w3.org/1999/xlink" x="0px" y="0px"
	 viewBox="0 0 600 600" enable-background="new 0 0 600 600" xml:space="preserve">
<path d="M300,600C134.6,600,0,465.4,0,300S134.6,0,300,0s300,134.6,300,300S465.4,600,300,600z M300,46.2
	C160.1,46.2,46.2,160.1,46.2,300S160.1,553.8,300,553.8S553.8,439.9,553.8,300S439.9,46.2,300,46.2z M342.5,143.5
	c2.4,5.6,3.6,11.5,3.6,17.9c0,6.3-1.2,12.3-3.6,18c-2.4,5.7-5.7,10.6-9.9,14.8c-4.2,4.2-9.1,7.5-14.8,9.9c-5.7,2.4-11.7,3.6-18,3.6
	c-6.3,0-12.3-1.2-17.9-3.6c-5.6-2.4-10.5-5.7-14.6-9.9c-4.2-4.2-7.5-9.1-9.9-14.8c-2.4-5.7-3.6-11.7-3.6-18c0-6.3,1.2-12.3,3.6-17.9
	c2.4-5.6,5.7-10.5,9.9-14.6c4.2-4.2,9-7.5,14.6-9.9c5.6-2.4,11.5-3.6,17.9-3.6c6.3,0,12.3,1.2,18,3.6c5.7,2.4,10.6,5.7,14.8,9.9
	C336.8,133.1,340.1,138,342.5,143.5z M346.2,401.7V299.8c0-25.2-20.7-45.9-46.2-45.9c-25.7,0-46.2,20.6-46.2,45.9v101.9
	c0,25.2,20.7,45.9,46.2,45.9C325.7,447.6,346.2,427.1,346.2,401.7z"/>
</svg>
