<?xml version="1.0" encoding="utf-8"?>
<!-- Generator: Adobe Illustrator 17.1.0, SVG Export Plug-In . SVG Version: 6.00 Build 0)  -->
<!DOCTYPE svg PUBLIC "-//W3C//DTD SVG 1.1//EN" "http://www.w3.org/Graphics/SVG/1.1/DTD/svg11.dtd">
<svg version="1.1" id="Layer_1" xmlns="http://www.w3.org/2000/svg" xmlns:xlink="http://www.w3.org/1999/xlink" x="0px" y="0px"
	 viewBox="0 0 600 600" enable-background="new 0 0 600 600" xml:space="preserve">
<path d="M98.3,0C53,0,16.1,35.8,16.1,79.8c0,44,36.9,79.8,82.2,79.8s82.2-35.8,82.2-79.8C180.6,35.8,143.7,0,98.3,0z M98.3,125.8
	c-26.2,0-47.4-20.6-47.4-46c0-25.4,21.3-46,47.4-46c26.2,0,47.4,20.6,47.4,46C145.8,105.1,124.5,125.8,98.3,125.8z M98.3,220.1
	c-45.4,0-82.2,35.8-82.2,79.8s36.9,79.8,82.2,79.8s82.2-35.8,82.2-79.8S143.7,220.1,98.3,220.1z M98.3,346
	c-26.2,0-47.4-20.6-47.4-46c0-25.4,21.3-46.1,47.4-46.1c26.2,0,47.4,20.6,47.4,46.1C145.8,325.3,124.5,346,98.3,346z M98.3,440.3
	c-45.4,0-82.2,35.8-82.2,79.8c0,44,36.9,79.8,82.2,79.8s82.2-35.8,82.2-79.8C180.6,476.1,143.7,440.3,98.3,440.3z M98.3,566.1
	c-26.2,0-47.4-20.7-47.4-46.1c0-25.4,21.3-46,47.4-46c26.2,0,47.4,20.6,47.4,46C145.8,545.4,124.5,566.1,98.3,566.1z M583.9,77
	c0,10-8.3,18.1-18.6,18.1H235.5c-10.2,0-18.6-8-18.6-18.1s8.3-18.1,18.6-18.1h329.8C575.6,58.9,583.9,67,583.9,77z M579.8,300.9
	c0,9.9-8.2,17.9-18.4,17.9H235.2c-10.2,0-18.4-7.9-18.4-17.9c0-9.9,8.2-17.9,18.4-17.9h326.1C571.4,283,579.8,291,579.8,300.9z
	 M579.8,521.1c0,9.9-8.2,17.9-18.4,17.9H235.2c-10.2,0-18.4-7.9-18.4-17.9c0-9.9,8.2-17.9,18.4-17.9h326.1
	C571.6,503.3,579.8,511.2,579.8,521.1z"/>
</svg>
