<?xml version="1.0" encoding="utf-8"?>
<!-- Generator: Adobe Illustrator 17.1.0, SVG Export Plug-In . SVG Version: 6.00 Build 0)  -->
<!DOCTYPE svg PUBLIC "-//W3C//DTD SVG 1.1//EN" "http://www.w3.org/Graphics/SVG/1.1/DTD/svg11.dtd">
<svg version="1.1" id="Layer_1" xmlns="http://www.w3.org/2000/svg" xmlns:xlink="http://www.w3.org/1999/xlink" x="0px" y="0px"
	 viewBox="0 0 600 600" enable-background="new 0 0 600 600" xml:space="preserve">
<path d="M0,471.4c0-23.7,19.3-42.9,42.7-42.9h514.7c23.6,0,42.7,19,42.7,42.9c0,23.7-19.3,42.9-42.7,42.9H42.7
	C19.1,514.3,0,495.3,0,471.4z M42.7,342.9h514.7c23.4,0,42.7-19.2,42.7-42.9c0-23.8-19.1-42.9-42.7-42.9H42.7
	C19.3,257.1,0,276.3,0,300C0,323.8,19.1,342.9,42.7,342.9z M557.1,85.7c-23.7,0-42.9,19.2-42.9,42.9s19.2,42.9,42.9,42.9
	s42.9-19.2,42.9-42.9S580.8,85.7,557.1,85.7z M428.8,171.4c23.6,0,42.7-19.2,42.7-42.9c0-23.8-19.1-42.9-42.7-42.9H42.7
	C19.1,85.7,0,104.9,0,128.6c0,23.8,19.1,42.9,42.7,42.9H428.8z"/>
</svg>
