<?xml version="1.0" encoding="utf-8"?>
<!-- Generator: Adobe Illustrator 17.1.0, SVG Export Plug-In . SVG Version: 6.00 Build 0)  -->
<!DOCTYPE svg PUBLIC "-//W3C//DTD SVG 1.1//EN" "http://www.w3.org/Graphics/SVG/1.1/DTD/svg11.dtd">
<svg version="1.1" id="Layer_1" xmlns="http://www.w3.org/2000/svg" xmlns:xlink="http://www.w3.org/1999/xlink" x="0px" y="0px"
	 viewBox="0 0 600 600" enable-background="new 0 0 600 600" xml:space="preserve">
<path d="M600,294.6c0,60.6-47.6,109.9-106.1,109.9h-51.4c-6,0-10.8-5-10.8-11.2c0-6.2,4.8-11.2,10.8-11.2h51.4
	c46.6,0,84.5-39.3,84.5-87.5S540.5,207,493.9,207h-291l61.2,71c4,4.6,3.6,11.7-0.9,15.8c-2.1,1.9-4.6,2.8-7.2,2.8
	c-3,0-5.9-1.3-8.1-3.7L179,213c-8.4-9.7-8.4-24.4,0-34.2l68.9-80c4-4.6,10.8-5,15.2-0.9c4.4,4.1,4.8,11.2,0.9,15.8l-61.2,71h291
	C552.4,184.7,600,234,600,294.6z M352.1,307c-2.1-2.5-5.1-3.7-8.1-3.7c-2.6,0-5.1,0.9-7.2,2.8c-4.4,4.1-4.8,11.2-0.9,15.8l61.2,71
	h-291c-46.6,0-84.5-39.3-84.5-87.5s37.9-87.5,84.5-87.5h51.4c6,0,10.8-5,10.8-11.2c0-6.2-4.8-11.2-10.8-11.2h-51.4
	C47.6,195.5,0,244.8,0,305.4s47.6,109.9,106.1,109.9h291l-61.2,71c-4,4.6-3.6,11.7,0.9,15.8c4.4,4.1,11.3,3.7,15.2-0.9l68.9-80
	c8.4-9.7,8.4-24.4,0-34.2L352.1,307z"/>
</svg>
