<?xml version="1.0" encoding="utf-8"?>
<!-- Generator: Adobe Illustrator 17.1.0, SVG Export Plug-In . SVG Version: 6.00 Build 0)  -->
<!DOCTYPE svg PUBLIC "-//W3C//DTD SVG 1.1//EN" "http://www.w3.org/Graphics/SVG/1.1/DTD/svg11.dtd">
<svg version="1.1" id="Layer_1" xmlns="http://www.w3.org/2000/svg" xmlns:xlink="http://www.w3.org/1999/xlink" x="0px" y="0px"
	 viewBox="0 0 600 600" enable-background="new 0 0 600 600" xml:space="preserve">
<path d="M415.9,415.9c15.9-15.9,41.7-15.8,57.5,0.1L588,530.6c15.9,15.9,16.1,41.6,0.1,57.5c-15.9,15.9-41.7,15.8-57.5-0.1
	L416,473.4C400.1,457.5,399.9,431.9,415.9,415.9z M415.9,415.9c-95.1,95.1-249.4,95.1-344.5,0c-95.1-95.1-95.1-249.4,0-344.5
	c95.1-95.1,249.4-95.1,344.5,0C511,166.5,511,320.8,415.9,415.9z M358.4,128.8c-63.4-63.4-166.2-63.4-229.7,0
	c-63.4,63.4-63.4,166.3,0,229.7c63.4,63.4,166.2,63.4,229.7,0S421.9,192.2,358.4,128.8z"/>
</svg>
