<?xml version="1.0" encoding="utf-8"?>
<!-- Generator: Adobe Illustrator 17.1.0, SVG Export Plug-In . SVG Version: 6.00 Build 0)  -->
<!DOCTYPE svg PUBLIC "-//W3C//DTD SVG 1.1//EN" "http://www.w3.org/Graphics/SVG/1.1/DTD/svg11.dtd">
<svg version="1.1" id="Layer_1" xmlns="http://www.w3.org/2000/svg" xmlns:xlink="http://www.w3.org/1999/xlink" x="0px" y="0px"
	 viewBox="0 0 600 600" enable-background="new 0 0 600 600" xml:space="preserve">
<path d="M300,600c-44.1,0-260-195.2-260-338.1C40,117.5,156.6,0,300,0s260,117.5,260,261.9C560,404.8,344.1,600,300,600z M300,28.1
	C172.1,28.1,68.1,133,68.1,261.9c0,125.7,198.8,305.6,231.9,309.9c33.1-4.4,231.9-184.3,231.9-309.9C531.9,133,427.9,28.1,300,28.1z
	 M404.8,218.6c-1.3-4-4.7-6.8-8.8-7.4l-57.3-8.3l-25.7-51.6c-1.9-3.7-5.7-6.1-9.8-6.1c-4.2,0-8,2.3-9.8,6.1l-25.6,51.6l-57.3,8.3
	c-4.1,0.6-7.6,3.5-8.9,7.4c-1.3,3.9-0.2,8.3,2.8,11.2l41.5,40.2l-9.8,56.7c-0.7,4.1,1,8.2,4.4,10.7c3.4,2.4,7.8,2.7,11.5,0.8
	l51.3-26.8l51.3,26.8c1.6,0.8,3.4,1.3,5.1,1.3c2.2,0,4.5-0.7,6.4-2.1c3.4-2.4,5.1-6.6,4.4-10.7l-9.8-56.7l41.5-40.1
	C405,226.9,406.1,222.5,404.8,218.6z"/>
</svg>
