<?xml version="1.0" encoding="utf-8"?>
<!-- Generator: Adobe Illustrator 17.1.0, SVG Export Plug-In . SVG Version: 6.00 Build 0)  -->
<!DOCTYPE svg PUBLIC "-//W3C//DTD SVG 1.1//EN" "http://www.w3.org/Graphics/SVG/1.1/DTD/svg11.dtd">
<svg version="1.1" id="Layer_1" xmlns="http://www.w3.org/2000/svg" xmlns:xlink="http://www.w3.org/1999/xlink" x="0px" y="0px"
	 viewBox="0 0 600 600" enable-background="new 0 0 600 600" xml:space="preserve">
<path d="M300,280.4c-88.4,0-160.3,71.7-160.3,159.8c0,88.1,71.9,159.8,160.3,159.8c88.4,0,160.2-71.7,160.2-159.8
	C460.2,352.1,388.4,280.4,300,280.4z M423,395.2c5.2,16,1.1,33.3-10.7,45.3l-23.6,23.9l5.2,33.4c2.6,16.6-4.3,33.1-17.9,43
	c0,0-0.1,0-0.1,0.1c-7.7,5.6-16.8,8.5-26.3,8.5c-7.1,0-14.1-1.7-20.4-4.9l-29.5-15.1l-29.5,15.1c-6.3,3.2-13.3,4.9-20.4,4.9
	c-9.5,0-18.7-3-26.4-8.6c-13.6-9.9-20.5-26.4-17.9-43l5.2-33.4l-23.6-23.9c-11.8-11.9-15.9-29.3-10.7-45.2
	c5.2-16,18.8-27.7,35.4-30.4l32.7-5.3l15.2-29.9c7.7-15.1,23-24.5,39.9-24.5c17,0,32.3,9.4,39.9,24.5l15.2,29.9l32.7,5.3
	C404.2,367.5,417.8,379.2,423,395.2z M394.7,404.3c1.8,5.4,0.3,11.3-3.6,15.4L357,454.2l7.5,48.1c0.9,5.6-1.5,11.3-6.1,14.6
	c-2.6,1.9-5.7,2.9-8.8,2.9c-2.3,0-4.7-0.5-6.8-1.6l-43-22l-43,22c-2.2,1.1-4.5,1.6-6.8,1.6c-3.1,0-6.2-1-8.8-2.9
	c-4.6-3.3-6.9-9-6.1-14.6l7.5-48.1l-34.1-34.5c-4-4-5.4-10-3.6-15.4c1.8-5.4,6.3-9.4,11.9-10.3l47.6-7.7l22-43.3
	c2.6-5.1,7.8-8.3,13.4-8.3c5.7,0,10.9,3.2,13.4,8.3l22,43.3l47.6,7.7C388.4,395,393,398.9,394.7,404.3z M594,11.4
	c3.7,7,3.1,15.4-1.4,21.9L444.5,246c7.8,3.2,13.2,10.7,13.2,19.6c0,11.7-9.5,21.2-21.2,21.2h-25.3c-31.3-22.6-69.7-36-111.2-36
	c-41.5,0-80,13.4-111.3,36h-25.3c-11.7,0-21.2-9.5-21.2-21.2c0-8.9,5.5-16.4,13.2-19.6L7.3,33.2c-4.5-6.5-5-14.9-1.4-21.9
	C9.6,4.4,16.9,0,24.8,0h170.2c7,0,13.5,3.4,17.4,9.1l69.5,99.9l-93.3,135.4h35.2L387.6,9.1c4-5.7,10.5-9.1,17.4-9.1h170.2
	C583.1,0,590.4,4.4,594,11.4z"/>
</svg>
