<?xml version="1.0" encoding="utf-8"?>
<!-- Generator: Adobe Illustrator 17.1.0, SVG Export Plug-In . SVG Version: 6.00 Build 0)  -->
<!DOCTYPE svg PUBLIC "-//W3C//DTD SVG 1.1//EN" "http://www.w3.org/Graphics/SVG/1.1/DTD/svg11.dtd">
<svg version="1.1" id="Layer_1" xmlns="http://www.w3.org/2000/svg" xmlns:xlink="http://www.w3.org/1999/xlink" x="0px" y="0px"
	 viewBox="0 0 600 600" enable-background="new 0 0 600 600" xml:space="preserve">
<path d="M489.2,30.8H110.8C49.7,30.8,0,79.4,0,139.1v225.2c0,59.7,49.7,108.3,110.8,108.3H372l94.4,92.3c2.8,2.8,6.6,4.2,10.4,4.2
	c1.9,0,3.8-0.4,5.6-1.1c5.5-2.2,9.1-7.5,9.1-13.3v-82.1c60-1.3,108.3-49.4,108.3-108.3V139.1C600,79.4,550.3,30.8,489.2,30.8z
	 M551.5,359.1c0,40.7-33.9,73.9-75.6,73.9h-11.5c-7.6,0-13.7,6-13.7,13.4v57.3l-68.4-66.8c-2.6-2.5-6.1-3.9-9.7-3.9H124
	c-41.7,0-75.6-33.1-75.6-73.9V149.7c0-40.7,33.9-73.9,75.6-73.9H476c41.7,0,75.6,33.1,75.6,73.9V359.1z M206.7,252.8
	c0,24.4-20.2,44.1-45.2,44.1c-24.9,0-45.2-19.8-45.2-44.1c0-24.4,20.2-44.2,45.2-44.2C186.4,208.7,206.7,228.4,206.7,252.8z
	 M345.2,252.8c0,24.4-20.2,44.1-45.2,44.1c-24.9,0-45.2-19.8-45.2-44.1c0-24.4,20.2-44.2,45.2-44.2
	C324.9,208.7,345.2,228.4,345.2,252.8z M483.7,252.8c0,24.4-20.2,44.1-45.2,44.1c-24.9,0-45.2-19.8-45.2-44.1
	c0-24.4,20.2-44.2,45.2-44.2C463.4,208.7,483.7,228.4,483.7,252.8z"/>
</svg>
