<?xml version="1.0" encoding="utf-8"?>
<!-- Generator: Adobe Illustrator 17.1.0, SVG Export Plug-In . SVG Version: 6.00 Build 0)  -->
<!DOCTYPE svg PUBLIC "-//W3C//DTD SVG 1.1//EN" "http://www.w3.org/Graphics/SVG/1.1/DTD/svg11.dtd">
<svg version="1.1" id="Layer_1" xmlns="http://www.w3.org/2000/svg" xmlns:xlink="http://www.w3.org/1999/xlink" x="0px" y="0px"
	 viewBox="0 0 600 600" enable-background="new 0 0 600 600" xml:space="preserve">
<path d="M163.5,600h272.9c26.1-0.1,47.4-21,47.4-46.7V46.6C483.9,21,462.7,0,436.5,0H163.5c-26.1,0-47.4,20.8-47.4,46.6v506.8
	C116.1,579,137.3,600,163.5,600z M146.7,46.6c0-9.2,7.6-16.5,16.8-16.5h272.9c9.2,0,16.8,7.3,16.8,16.5V78H146.7V46.6z M146.7,108
	h306.5v341H146.7V108z M146.7,478.9h306.5v74.4c0,9.1-7.5,16.5-16.8,16.5H163.5c-9.2,0-16.8-7.4-16.8-16.5V478.9z M268.9,540.8
	c-8.5,0-15.3-6.7-15.3-15.1c0-8.3,6.9-15.1,15.3-15.1h62c8.5,0,15.3,6.7,15.3,15.1c0,8.3-6.9,15.1-15.3,15.1H268.9z"/>
</svg>
