<?xml version="1.0" encoding="utf-8"?>
<!-- Generator: Adobe Illustrator 17.1.0, SVG Export Plug-In . SVG Version: 6.00 Build 0)  -->
<!DOCTYPE svg PUBLIC "-//W3C//DTD SVG 1.1//EN" "http://www.w3.org/Graphics/SVG/1.1/DTD/svg11.dtd">
<svg version="1.1" id="Layer_1" xmlns="http://www.w3.org/2000/svg" xmlns:xlink="http://www.w3.org/1999/xlink" x="0px" y="0px"
	 viewBox="0 0 600 600" enable-background="new 0 0 600 600" xml:space="preserve">
<path d="M373.3,17.8c-4.3-2.6-9.7-2.5-13.9,0.3l-141.1,94c0,0-0.1,0-0.1,0.1l-70.5,47c0,0-0.1,0-0.1,0.1l-141.2,94
	c-4,2.7-6.4,7.4-6.3,12.5c0.1,5,2.7,9.7,6.9,12.2L226.7,410c2.1,1.3,4.4,1.9,6.7,1.9c2.5,0,5-0.7,7.2-2.2l100.5-66.9
	c6.3-4.2,8.3-13.1,4.3-19.8c-4-6.7-12.4-8.7-18.7-4.5L233,380.8l-193-116L155.1,188L361,311.8v163.9c0,5.2,2.7,10,7,12.6
	c2,1.2,4.3,1.8,6.6,1.8c2.5,0,5-0.7,7.2-2.2l70.6-47c3.9-2.6,6.3-7.2,6.3-12.1V256.4c0-0.1,0-0.2,0-0.3c0-0.5,0-1-0.1-1.4
	c0-0.1,0-0.2,0-0.4c-0.1-0.6-0.2-1.2-0.3-1.7c0,0,0,0,0,0c-0.1-0.5-0.3-1.1-0.5-1.6c-0.1-0.2-0.1-0.3-0.2-0.4
	c-0.2-0.4-0.3-0.7-0.5-1.1c-0.1-0.2-0.2-0.3-0.3-0.5c0-0.1-0.1-0.2-0.1-0.3c-0.2-0.3-0.4-0.7-0.6-1c0-0.1-0.1-0.1-0.1-0.2
	c-0.3-0.5-0.7-0.9-1.1-1.3c-0.1-0.1-0.2-0.1-0.2-0.2c-0.3-0.3-0.7-0.7-1-1c-0.1-0.1-0.2-0.1-0.3-0.2c-0.5-0.4-1-0.7-1.5-1
	l-200-120.2L367,47l193,116l-81.3,54.1c-6.3,4.2-8.2,13.1-4.3,19.8c4,6.7,12.4,8.7,18.7,4.5l100.5-66.9c4-2.7,6.4-7.4,6.3-12.5
	c-0.1-5-2.7-9.7-6.9-12.2L373.3,17.8z M418.8,257.1l-16.9,11.3c-6.3,4.2-8.2,13.1-4.3,19.8c2.6,4.3,7,6.7,11.5,6.7
	c2.5,0,5-0.7,7.2-2.2l15.3-10.2v138.3l-43.5,28.9V303.4c0-5.2-2.6-9.9-6.9-12.5L181.2,170.7l44.5-29.7L418.8,257.1z M597.9,212.2
	c4,6.7,2.1,15.6-4.3,19.8l-100.5,66.9c-2.2,1.5-4.8,2.2-7.2,2.2c-4.5,0-8.9-2.4-11.5-6.7c-4-6.7-2.1-15.6,4.3-19.8l100.5-66.9
	C585.5,203.4,593.9,205.4,597.9,212.2z M345.4,380.3c4,6.7,2.1,15.6-4.3,19.8l-100.5,66.9c-2.2,1.5-4.7,2.2-7.2,2.2
	c-2.3,0-4.6-0.6-6.7-1.9L6.9,335.2c-6.5-3.9-8.8-12.7-5.1-19.6c3.7-6.9,12-9.3,18.5-5.4L233,438.2l93.6-62.3
	C333,371.6,341.4,373.6,345.4,380.3z M597.9,269.6c4,6.7,2.1,15.6-4.3,19.8l-100.5,66.9c-2.2,1.5-4.8,2.2-7.2,2.2
	c-4.5,0-8.9-2.4-11.5-6.7c-4-6.7-2.1-15.6,4.3-19.8l100.5-66.9C585.5,260.9,593.9,262.9,597.9,269.6z M345.4,437.8
	c4,6.7,2.1,15.6-4.3,19.8l-100.5,66.9c-2.2,1.5-4.7,2.2-7.2,2.2c-2.3,0-4.6-0.6-6.7-1.9L6.9,392.7c-6.5-3.9-8.8-12.7-5.1-19.6
	c3.7-6.9,12-9.3,18.5-5.4L233,495.6l93.6-62.3C333,429,341.4,431,345.4,437.8z M597.9,327c4,6.7,2.1,15.6-4.3,19.8l-100.5,66.9
	c-2.2,1.5-4.8,2.2-7.2,2.2c-4.5,0-8.9-2.4-11.5-6.7c-4-6.7-2.1-15.6,4.3-19.8l100.5-66.9C585.5,318.3,593.9,320.3,597.9,327z
	 M345.4,495.2c4,6.7,2.1,15.6-4.3,19.8l-100.5,66.9c-2.2,1.5-4.7,2.2-7.2,2.2c-2.3,0-4.6-0.6-6.7-1.9L6.9,450.1
	c-6.5-3.9-8.8-12.7-5.1-19.6c3.7-6.9,12-9.3,18.5-5.4L233,553l93.6-62.3C333,486.5,341.4,488.5,345.4,495.2z"/>
</svg>
