<?xml version="1.0" encoding="utf-8"?>
<!-- Generator: Adobe Illustrator 17.1.0, SVG Export Plug-In . SVG Version: 6.00 Build 0)  -->
<!DOCTYPE svg PUBLIC "-//W3C//DTD SVG 1.1//EN" "http://www.w3.org/Graphics/SVG/1.1/DTD/svg11.dtd">
<svg version="1.1" id="Layer_1" xmlns="http://www.w3.org/2000/svg" xmlns:xlink="http://www.w3.org/1999/xlink" x="0px" y="0px"
	 viewBox="0 0 600 600" enable-background="new 0 0 600 600" xml:space="preserve">
<path d="M153.8,220.8L101,273.6h172.5V101l-52.8,52.8l-37.3-37.3L300,0l116.5,116.5l-37.4,37.3L326.4,101v172.5H499l-52.8-52.8
	l37.3-37.3L600,300L483.5,416.5l-37.3-37.3l52.8-52.8H326.4V499l52.8-52.8l37.4,37.3L300,600L183.5,483.5l37.3-37.3l52.8,52.8V326.4
	H101l52.8,52.8l-37.3,37.3L0,300l116.5-116.5L153.8,220.8z"/>
</svg>
