<?xml version="1.0" encoding="utf-8"?>
<!-- Generator: Adobe Illustrator 17.1.0, SVG Export Plug-In . SVG Version: 6.00 Build 0)  -->
<!DOCTYPE svg PUBLIC "-//W3C//DTD SVG 1.1//EN" "http://www.w3.org/Graphics/SVG/1.1/DTD/svg11.dtd">
<svg version="1.1" id="Layer_1" xmlns="http://www.w3.org/2000/svg" xmlns:xlink="http://www.w3.org/1999/xlink" x="0px" y="0px"
	 viewBox="0 0 600 600" enable-background="new 0 0 600 600" xml:space="preserve">
<path d="M196.8,220.7l169.6-104.4c-0.9-5.3-1.4-10.8-1.4-16.4c0-55.2,43.7-100,97.5-100S560,44.8,560,100c0,55.2-43.7,100-97.5,100
	c-22.3,0-42.8-7.8-59.3-20.8L233.6,283.6c0.8,5.3,1.4,10.8,1.4,16.4c0,5.6-0.6,11-1.4,16.4l169.6,104.4
	c16.4-12.9,36.9-20.7,59.3-20.7c53.8,0,97.5,44.8,97.5,100c0,55.2-43.7,100-97.5,100S365,555.2,365,500c0-5.6,0.6-11,1.4-16.4
	L196.8,379.2c-16.4,13-36.9,20.8-59.3,20.8C83.7,400,40,355.2,40,300c0-55.2,43.7-100,97.5-100C159.8,200,180.3,207.8,196.8,220.7z"
	/>
</svg>
