<?xml version="1.0" encoding="utf-8"?>
<!-- Generator: Adobe Illustrator 17.1.0, SVG Export Plug-In . SVG Version: 6.00 Build 0)  -->
<!DOCTYPE svg PUBLIC "-//W3C//DTD SVG 1.1//EN" "http://www.w3.org/Graphics/SVG/1.1/DTD/svg11.dtd">
<svg version="1.1" id="Layer_1" xmlns="http://www.w3.org/2000/svg" xmlns:xlink="http://www.w3.org/1999/xlink" x="0px" y="0px"
	 viewBox="0 0 600 600" enable-background="new 0 0 600 600" xml:space="preserve">
<path d="M366.8,17.5C347.9,6.5,325.9,0.5,301.3,0h-2.1c-13.5,0-40.1,2.2-65.5,17c-25.6,14.8-56.8,46.5-59.8,113.2
	c-0.9,8.8-8.6,101.3,38.2,155.2c21.2,24.5,50.1,37.3,85.7,37.9h3.9c35.7-0.6,64.6-13.4,85.9-37.9c46.9-53.9,39.1-146.4,38.2-155.2
	C422.8,64,392.1,32.3,366.8,17.5z M363.1,263.2c-15.3,17.6-35.8,26.3-62.7,26.6h-1.2c-26.8-0.3-47.4-8.9-62.6-26.6
	c-38.6-44.2-30.3-129.1-30.2-129.8c0-0.4,0.1-0.7,0.1-1c4-89.1,66-98.7,92.6-98.7h1.5c32.9,0.7,88.8,14.4,92.6,98.7
	c0,0.4,0,0.7,0.1,1C393.4,134.2,401.9,218.7,363.1,263.2z M82.8,474c0,1.1-0.1,2.1-0.1,3.1c-0.2,11.2,0.6,28.5,2.6,38.4
	c19.9,11.4,97.7,51.1,214.8,51.1c117.7,0,195-39.5,214.7-50.9c1.9-9.9,2.7-27.2,2.6-38.4c-0.1-1-0.1-2-0.1-3.1
	c-0.8-28.3-4-59.3-32.4-69.6c-60.7-15.9-109.1-50.3-111.2-51.8c-7.4-5.3-9.3-15.8-4-23.4c5.2-7.6,15.5-9.4,22.9-4.1
	c0.5,0.4,46.2,32.7,101.1,47c0.4,0.1,0.9,0.2,1.2,0.4c52.9,18.4,54.4,75.9,55.2,100.5c0,1.1,0.1,2.1,0.1,3.1v0.4
	c0.1,6.5,0.2,39.6-5.8,56.2c-1.2,3.2-3.5,6-6.3,7.8c-3.7,2.4-91.2,59.4-237.7,59.4S66.1,543.1,62.4,540.6c-2.9-1.9-5.1-4.6-6.3-7.8
	c-6.5-16.6-6.3-49.8-6.2-56.3v-0.4c0.1-1,0.1-2,0.1-3.1c0.7-24.5,2.3-82,55.2-100.5c0.4-0.1,0.7-0.2,1.2-0.4
	c55.2-14.3,100.6-46.6,101.1-47c7.4-5.3,17.7-3.5,22.9,4.1c5.2,7.6,3.4,18-4,23.4c-2.1,1.4-50.5,35.9-111.2,51.8
	C86.8,414.7,83.6,445.7,82.8,474z"/>
</svg>
