<?xml version="1.0" encoding="utf-8"?>
<!-- Generator: Adobe Illustrator 17.1.0, SVG Export Plug-In . SVG Version: 6.00 Build 0)  -->
<!DOCTYPE svg PUBLIC "-//W3C//DTD SVG 1.1//EN" "http://www.w3.org/Graphics/SVG/1.1/DTD/svg11.dtd">
<svg version="1.1" id="Layer_1" xmlns="http://www.w3.org/2000/svg" xmlns:xlink="http://www.w3.org/1999/xlink" x="0px" y="0px"
	 viewBox="0 0 600 600" enable-background="new 0 0 600 600" xml:space="preserve">
<path d="M289.4,123.8c0.1,1,0.3,1.9,0.3,2.9c0,8.2-5.8,15.4-14.2,16.8c-33.2,5.7-63.3,21.2-87.4,45.2c-24.1,24-39.8,54.1-45.3,87.1
	c-1.5,9.3-10.5,15.4-19.8,13.8c-9.2-1.6-15.4-10.4-13.9-19.7c6.8-40,25.8-76.5,54.8-105.4c29-28.9,65.6-47.9,105.7-54.7
	C279,108.2,287.8,114.4,289.4,123.8z M264.7,1.5c-66.1,11.2-126.2,42.3-174.1,90c-47.9,47.7-79,107.7-90.3,173.6
	c-1.6,9.2,4.7,17.9,13.9,19.6c9.4,1.5,18.1-4.7,19.8-14c10-58.8,38-112.5,80.7-155.2c42.8-42.7,96.6-70.5,155.6-80.4
	c8.4-1.4,14.2-8.6,14.2-16.8c0-1-0.1-1.9-0.3-2.9C282.8,6.2,273.9-0.1,264.7,1.5z M568.6,95.6c20.9,19.2,31.4,43.7,31.4,72.9
	c0,2.5-0.1,5.3-0.3,8c-2.8,43.3-19.1,82.1-32.9,111.1c-36.9,76-89.2,142.6-155.4,197.9c-55,45.6-106.2,76.2-161.6,96.6
	c-22.5,8.3-57,19.2-94,16.2c-22.9-2-42.7-11.2-58.9-27.4l-43.4-42.9l-0.3-0.3c-12.2-12.6-18.6-27.5-18.6-42.9
	c0-15.4,6.5-30.1,18.6-42.3c7.6-8.2,15.7-16.2,23.6-23.7c4.1-3.8,8.1-7.8,12-11.7l34.6-34.5c26.6-26.5,61-26.5,87.6,0
	c3.5,3.5,7.2,7.1,10.8,10.6c9.5,9.3,19.4,18.9,28.9,29.3c17.1-7.7,33.9-18.3,53.9-34.1c40.1-32.6,71.2-66.6,95-103.9
	c2.3-3.7,4.4-8,6.7-12.5c1.6-3.2,3.3-6.4,5.1-9.7l-39.9-39.9c-12.8-12.8-19.5-27.7-19.5-43.2c0-15.7,6.8-30.4,19.6-42.7L441.5,57
	c12.7-12.8,27.7-19.4,43.4-19.4c15.6,0,30.8,6.6,43.8,19.1c5.7,5.4,11.1,11,16.3,16.4c7.7,8,14.9,15.5,22.9,22.1
	C568.2,95.2,568.3,95.5,568.6,95.6z M565.9,168.3c0-19.7-6.5-34.7-20.1-47.5c-9.2-7.8-17.5-16.2-25.3-24.4
	c-5.3-5.4-10.1-10.5-15.5-15.4c-13.4-12.9-26.7-12.9-39.6,0.1l-70,69.8c-4.3,3.9-9.2,10.4-9.2,18.2c0,8,5.2,14.8,9.5,19.1l43.3,43.2
	c2.2,2.1,8.7,8.7,8.7,19.2c0,4.2-1,8.2-3.2,12.5c-0.3,0.5-0.6,1-0.9,1.5c-2.3,3.7-4.4,8-6.7,12.5c-2.5,5.1-5.2,10.4-8.5,15.5
	c-25.7,40.5-59.3,77.3-102.3,112.1L326,405c-24.4,19.2-45,31.8-66.7,40.8l-1.1,0.4c-7.2,2.3-17.9,4.3-28.7-6.6
	c-0.2-0.1-0.4-0.4-0.6-0.6c-9.9-11-20-21.1-30.9-31.7c-3.5-3.7-7.2-7.2-10.9-10.9c-13.4-13.4-25.8-13.4-39.3,0l-34.6,34.5
	c-4.2,4-8.2,8.1-12.3,12c-8,7.7-15.4,15-22.7,22.7l-0.4,0.4c-4.1,4-8.9,10.5-8.9,18.4c0,6.4,3.2,13,9,19.2l43.2,43.1
	c10.5,10.5,22.8,16.2,37.6,17.4c23.2,1.9,47.7-2.4,79.3-14.1c51.7-19.1,99.8-47.9,151.8-90.9c62.4-52.2,111.7-114.9,146.4-186.4
	c12.5-26.1,27.2-61,29.6-98.5C565.9,172.3,565.9,170.2,565.9,168.3z"/>
</svg>
