<?xml version="1.0" encoding="utf-8"?>
<!-- Generator: Adobe Illustrator 17.1.0, SVG Export Plug-In . SVG Version: 6.00 Build 0)  -->
<!DOCTYPE svg PUBLIC "-//W3C//DTD SVG 1.1//EN" "http://www.w3.org/Graphics/SVG/1.1/DTD/svg11.dtd">
<svg version="1.1" id="Layer_1" xmlns="http://www.w3.org/2000/svg" xmlns:xlink="http://www.w3.org/1999/xlink" x="0px" y="0px"
	 viewBox="0 0 600 600" enable-background="new 0 0 600 600" xml:space="preserve">
<path d="M529.9,36.9c-31-35.7-62.4-13.6-93.5,23l-18.8,21.8c-31,36.4-49.8,73.5-18.9,109.5l18.8,21.5c13.5,15.7,76.9,45-52.4,158.1
	c-129.2,113.1-149.3,45.8-162.7,30l-18.7-21.6c-31.1-35.9-70.1-22.3-110.3,3.6L49,398.3c-40.1,26-66.4,54.3-35.4,90.1l16.8,19.4
	c11.6,15.9,48.9,60.3,119.9,71c85.2,13,182.7-27.9,289.7-121.6C547.2,363.8,600.9,272.3,600,185.6c-0.8-72-39.2-115.6-53.2-129.2
	L529.9,36.9z"/>
</svg>
