<?xml version="1.0" encoding="utf-8"?>
<!-- Generator: Adobe Illustrator 17.1.0, SVG Export Plug-In . SVG Version: 6.00 Build 0)  -->
<!DOCTYPE svg PUBLIC "-//W3C//DTD SVG 1.1//EN" "http://www.w3.org/Graphics/SVG/1.1/DTD/svg11.dtd">
<svg version="1.1" id="Layer_1" xmlns="http://www.w3.org/2000/svg" xmlns:xlink="http://www.w3.org/1999/xlink" x="0px" y="0px"
	 viewBox="0 0 600 600" enable-background="new 0 0 600 600" xml:space="preserve">
<path d="M343,43.1V257h213.9c23.8,0,43.1,19.1,43.1,43c0,23.7-19.3,43-43.1,43H343v213.9c0,23.8-19.1,43.1-43,43.1
	c-23.7,0-43-19.3-43-43.1V343H43.2C19.3,343,0,323.9,0,300c0-23.7,19.3-43,43.2-43H257V43.1C257,19.3,276.1,0,300,0
	C323.7,0,343,19.3,343,43.1z"/>
</svg>
