<?xml version="1.0" encoding="utf-8"?>
<!-- Generator: Adobe Illustrator 17.1.0, SVG Export Plug-In . SVG Version: 6.00 Build 0)  -->
<!DOCTYPE svg PUBLIC "-//W3C//DTD SVG 1.1//EN" "http://www.w3.org/Graphics/SVG/1.1/DTD/svg11.dtd">
<svg version="1.1" id="Layer_1" xmlns="http://www.w3.org/2000/svg" xmlns:xlink="http://www.w3.org/1999/xlink" x="0px" y="0px"
	 viewBox="0 0 600 600" enable-background="new 0 0 600 600" xml:space="preserve">
<path d="M73.4,538.5h453.3c40.5,0,73.4-34.4,73.4-76.6V138.3c0.1-42.3-32.8-76.8-73.2-76.8H73.4C32.9,61.5,0,95.9,0,138.1v323.7
	C0,504.1,32.9,538.5,73.4,538.5z M33.5,138.3c0-23,17.9-41.6,39.8-41.6h453.3c22,0,39.9,18.7,39.9,41.6v323.6h0.1
	c0,23-17.9,41.6-39.9,41.6H73.4c-22,0-39.8-18.7-39.8-41.6V138.3z M525.1,158.5L378.4,296l147.4,146.2c6.7,6.6,7,17.8,0.6,24.8
	c-3.4,3.6-7.7,5.5-12.2,5.5c-4.1,0-8.3-1.6-11.5-4.8L353.4,319.5l-41.8,39.2c-3.1,3-7.2,4.5-11.2,4.5c-4,0-7.9-1.4-11.2-4.4
	l-40.7-38L98.4,467.4c-3.2,3.1-7.3,4.7-11.4,4.7c-4.5,0-8.9-2-12.3-5.6c-6.3-7.1-6-18.2,0.7-24.8l147.9-144.6L74.9,158.5
	c-6.9-6.5-7.6-17.5-1.4-24.8c6.2-7.3,16.8-7.9,23.7-1.4l160.6,150.2c1,0.8,1.9,1.6,2.7,2.5c0,0.1,0.1,0.3,0.2,0.4l39.5,36.8
	l202.4-189.7c6.9-6.5,17.5-5.8,23.7,1.3C532.6,141,532,152,525.1,158.5z"/>
</svg>
