<?xml version="1.0" encoding="utf-8"?>
<!-- Generator: Adobe Illustrator 17.1.0, SVG Export Plug-In . SVG Version: 6.00 Build 0)  -->
<!DOCTYPE svg PUBLIC "-//W3C//DTD SVG 1.1//EN" "http://www.w3.org/Graphics/SVG/1.1/DTD/svg11.dtd">
<svg version="1.1" id="Layer_1" xmlns="http://www.w3.org/2000/svg" xmlns:xlink="http://www.w3.org/1999/xlink" x="0px" y="0px"
	 viewBox="0 0 600 600" enable-background="new 0 0 600 600" xml:space="preserve">
<path d="M275,594.6h2c10.5-0.6,25.1-5.3,33.3-25.7l26.2-64.1c16.3-40,32.8-80,49-120c44.7-17.3,89.2-35,134-52.6l54.4-21.3
	c21.4-8.4,25.9-22.9,25.9-33.8c0-10.6-4-25.2-24.5-34.4C440.4,182.2,305,122.1,169.9,61.6L86.7,24.4C75,19.1,63.3,14.1,51.6,8.8
	c-14.5-6.2-31.1-3.6-41.3,6.7C3.7,21.9,0,30.8,0,40.4c0,8.7,3.1,15.4,5.1,19l235.2,511.1C249.4,590.4,264.2,594.6,275,594.6z
	 M146.2,112c122,54.5,244,109.1,366,163.4l-14,5.6c-48.2,19-96.6,38-145.1,56.8c-7.1,2.8-12.8,8.4-15.7,15.4
	c-17.7,43.6-35.6,87.3-53.3,130.9L273.9,509L77,80.9L146.2,112z"/>
</svg>
