<?xml version="1.0" encoding="utf-8"?>
<!-- Generator: Adobe Illustrator 17.1.0, SVG Export Plug-In . SVG Version: 6.00 Build 0)  -->
<!DOCTYPE svg PUBLIC "-//W3C//DTD SVG 1.1//EN" "http://www.w3.org/Graphics/SVG/1.1/DTD/svg11.dtd">
<svg version="1.1" id="Layer_1" xmlns="http://www.w3.org/2000/svg" xmlns:xlink="http://www.w3.org/1999/xlink" x="0px" y="0px"
	 viewBox="0 0 600 600" enable-background="new 0 0 600 600" xml:space="preserve">
<path d="M359.5,570.5L594.7,59.4c2-3.6,5.1-10.3,5.1-19c0-9.6-3.7-18.5-10.3-24.9c-10.2-10.3-26.8-12.9-41.3-6.7
	c-11.7,5.3-23.4,10.3-35.1,15.6l-83.2,37.2C294.8,122.1,159.4,182.2,24.5,242.7C4,251.9,0,266.5,0,277.1c0,10.9,4.5,25.4,25.9,33.8
	l54.4,21.3c44.8,17.6,89.3,35.3,134,52.6c16.2,40,32.7,80,49,120l26.2,64.1c8.2,20.4,22.8,25.1,33.3,25.7h2
	C335.6,594.6,350.4,590.4,359.5,570.5z M522.8,80.9L325.9,509l-10.2-24.9c-17.7-43.6-35.6-87.3-53.3-130.9
	c-2.9-7-8.6-12.6-15.7-15.4C198.2,319,149.8,300,101.6,281l-14-5.6c122-54.3,244-108.9,366-163.4L522.8,80.9z"/>
</svg>
