<?xml version="1.0" encoding="utf-8"?>
<!-- Generator: Adobe Illustrator 17.1.0, SVG Export Plug-In . SVG Version: 6.00 Build 0)  -->
<!DOCTYPE svg PUBLIC "-//W3C//DTD SVG 1.1//EN" "http://www.w3.org/Graphics/SVG/1.1/DTD/svg11.dtd">
<svg version="1.1" id="Layer_1" xmlns="http://www.w3.org/2000/svg" xmlns:xlink="http://www.w3.org/1999/xlink" x="0px" y="0px"
	 viewBox="0 0 600 600" enable-background="new 0 0 600 600" xml:space="preserve">
<path d="M600,322.8v3.6v3.7c0,108.8-85.9,197.1-191.9,197.1H14.2c0,0-5.9,0.1-5.9-7.7c0-7.8,0-70.8,0-81.9c0-10.9,7.1-9,7.1-9h392.8
	c52.9,0,95.8-44.3,95.8-98.5c0-1.6,0.1-4.9,0.1-4.9s-0.1-1.5-0.1-2.4c0-54.3-43-98.6-95.8-98.6H185.6l-17.3,0.1c0,0,0,33.7,0,47.7
	c0,14-14.6,0.7-14.6,0.7L3.8,183.8c0,0-7.9-6.8-0.9-14.1c9.7-10.1,152.9-92.2,152.9-92.2s12.5-12.9,12.4,4.1v44.1
	c0,0,7.2-0.1,18.2,0h221.7C514.1,125.8,600,214,600,322.8z"/>
</svg>
