<?xml version="1.0" encoding="utf-8"?>
<!-- Generator: Adobe Illustrator 17.1.0, SVG Export Plug-In . SVG Version: 6.00 Build 0)  -->
<!DOCTYPE svg PUBLIC "-//W3C//DTD SVG 1.1//EN" "http://www.w3.org/Graphics/SVG/1.1/DTD/svg11.dtd">
<svg version="1.1" id="Layer_1" xmlns="http://www.w3.org/2000/svg" xmlns:xlink="http://www.w3.org/1999/xlink" x="0px" y="0px"
	 viewBox="0 0 600 600" enable-background="new 0 0 600 600" xml:space="preserve">
<path d="M600,52.5v173.3c0,6.7-2.5,12.5-7.4,17.4c-5,4.9-10.8,7.3-17.6,7.3H400c-11,0-18.6-5.2-23.1-15.5c-4.4-10-2.6-18.9,5.5-26.7
	l53.9-53.4c-38.6-35.3-84-53-136.3-53c-27.1,0-52.9,5.2-77.5,15.7c-24.6,10.4-45.9,24.5-63.9,42.4c-18,17.8-32.2,38.9-42.8,63.2
	c-10.5,24.4-15.8,50-15.8,76.8c0,26.8,5.3,52.4,15.8,76.8c10.6,24.4,24.8,45.5,42.8,63.2c18,17.8,39.3,31.9,63.9,42.3
	c24.6,10.5,50.5,15.7,77.5,15.7c31,0,60.3-6.7,87.9-20.1c27.6-13.4,50.9-32.4,69.9-56.9c1.8-2.6,4.8-4.2,9-4.7
	c3.7,0,6.9,1.2,9.8,3.5l53.5,53.4c2.3,2.1,3.6,4.7,3.7,7.9c0.1,3.2-0.8,6.1-2.9,8.7c-28.4,34.1-62.8,60.4-103.1,79.1
	c-40.4,18.7-82.9,28.1-127.7,28.1c-40.6,0-79.4-7.9-116.4-23.6c-37-15.7-68.9-36.9-95.7-63.4c-26.8-26.6-48.2-58.1-64-94.8
	C7.9,378.6,0,340.2,0,300c0-40.2,7.9-78.7,23.8-115.3c15.9-36.6,37.2-68.2,64-94.8c26.8-26.6,58.7-47.7,95.7-63.4
	c37-15.7,75.8-23.6,116.4-23.6c38.3,0,75.3,7.2,111.1,21.5c35.8,14.3,67.6,34.5,95.5,60.5l50.8-49.9c7.6-8,16.7-9.8,27.3-5.4
	C594.9,34,600,41.6,600,52.5z"/>
</svg>
