<?xml version="1.0" encoding="utf-8"?>
<!-- Generator: Adobe Illustrator 17.1.0, SVG Export Plug-In . SVG Version: 6.00 Build 0)  -->
<!DOCTYPE svg PUBLIC "-//W3C//DTD SVG 1.1//EN" "http://www.w3.org/Graphics/SVG/1.1/DTD/svg11.dtd">
<svg version="1.1" id="Layer_1" xmlns="http://www.w3.org/2000/svg" xmlns:xlink="http://www.w3.org/1999/xlink" x="0px" y="0px"
	 viewBox="0 0 600 600" enable-background="new 0 0 600 600" xml:space="preserve">
<path d="M489.1,544.6c-1.9,0-3.8-0.6-5.4-1.8c-3.8-2.9-4.5-8.4-1.5-12.2c2.9-3.5,4.8-7.6,5.9-12c1-4.7,5.7-7.6,10.5-6.6
	c4.8,1,7.7,5.6,6.7,10.4c-1.6,6.8-4.7,13.4-9.2,18.9C494.3,543.5,491.8,544.6,489.1,544.6z M300.3,322.8c-4.5-1.6-6.7-6.7-5.1-11.2
	s6.8-6.7,11.3-5c3.5,1.3,7.2,2,11,2h3.1c4.8,0,8.8,3.8,8.8,8.6c0,4.8-3.9,8.7-8.8,8.7h-3.1C311.5,326,305.8,324.9,300.3,322.8z
	 M195.2,542.2c4.8,0,8.7,3.9,8.7,8.6c0,4.8-3.9,8.7-8.7,8.7h-17.6c-4.8,0-8.8-3.9-8.8-8.7c0-4.8,4-8.6,8.8-8.6H195.2z M312.2,231.1
	c4.8-0.4,9.2,2.9,9.7,7.7c0.5,4.8-2.9,9-7.8,9.5c-4.6,0.5-8.9,1.9-12.7,4.3c-1.5,0.9-3,1.3-4.7,1.3c-2.9,0-5.8-1.5-7.5-4.1
	c-2.5-4.1-1.3-9.3,2.9-11.9C298.2,234.2,304.9,231.8,312.2,231.1z M350.7,403.9c-4.7,0-8.6-3.6-8.7-8.3c-0.3-4.8,3.5-8.8,8.4-9
	c0.8,0,1.5,0,2.2,0h15.7c4.8,0,8.8,3.9,8.8,8.6s-4,8.6-8.8,8.6h-17.2C350.9,403.9,350.9,403.9,350.7,403.9z M456.1,403.8
	c-4.8,0-8.8-3.9-8.8-8.6s4-8.6,8.8-8.6h17.6c4.8,0,8.8,3.9,8.8,8.6s-4,8.6-8.8,8.6H456.1z M461.1,326c-4.8,0-8.7-3.8-8.7-8.7
	c0-4.8,3.9-8.6,8.7-8.6h17.6c4.8,0,8.8,3.8,8.8,8.6c0,4.8-4,8.7-8.8,8.7H461.1z M403.4,403.8c-4.8,0-8.7-3.9-8.7-8.6
	s3.9-8.6,8.7-8.6H421c4.8,0,8.8,3.9,8.8,8.6s-4,8.6-8.8,8.6H403.4z M382.1,317.3c0,4.8-3.9,8.7-8.8,8.7h-17.6
	c-4.8,0-8.8-3.8-8.8-8.7c0-4.8,4-8.6,8.8-8.6h17.6C378.2,308.6,382.1,312.5,382.1,317.3z M434.8,317.3c0,4.8-4,8.7-8.8,8.7h-17.6
	c-4.9,0-8.8-3.8-8.8-8.7c0-4.8,3.9-8.6,8.8-8.6H426C431,308.6,434.8,312.5,434.8,317.3z M558.5,348.7c0.3,2.5,0.6,5.1,0.5,7.6
	c0,4.5-0.6,9-1.9,13.3c-1.1,3.7-4.7,6.2-8.5,6.2c-0.8,0-1.6-0.1-2.4-0.3c-4.7-1.4-7.4-6.1-6-10.7c0.8-2.8,1.2-5.6,1.2-8.6
	c0-1.6-0.2-3.2-0.3-4.8c-0.8-4.7,2.5-9.2,7.3-9.9C553.2,340.7,557.7,344,558.5,348.7z M414.8,550.8c0,4.8-4,8.7-8.8,8.7h-17.6
	c-4.8,0-8.8-3.9-8.8-8.7c0-4.8,4-8.6,8.8-8.6H406C410.8,542.2,414.8,546.1,414.8,550.8z M362,550.8c0,4.8-4,8.7-8.8,8.7h-17.6
	c-4.8,0-8.7-3.9-8.7-8.7c0-4.8,3.9-8.6,8.7-8.6h17.6C358.1,542.2,362,546.1,362,550.8z M449.9,473c0,4.8-4,8.6-8.8,8.6h-17.6
	c-4.9,0-8.8-3.9-8.8-8.6s3.9-8.6,8.8-8.6h17.6C446,464.4,449.9,468.2,449.9,473z M467.1,550.8c0,4.8-3.6,8.7-8.5,8.7v-8.7l-0.3,8.7
	h-17.3c-4.8,0-8.8-3.9-8.8-8.7c0-4.8,4-8.6,8.8-8.6h17C462.9,542.2,467.1,546.1,467.1,550.8z M388.4,464.4h-17.6
	c-4.8,0-8.8,3.9-8.8,8.6s4,8.6,8.8,8.6h17.6c4.8,0,8.8-3.9,8.8-8.6C397.1,468.2,393.2,464.4,388.4,464.4z M496,482.5
	c3,3.7,2.3,9.2-1.5,12.2c-1.6,1.3-3.5,1.8-5.4,1.8c-2.6,0-5.2-1.1-6.9-3.3c-2.8-3.5-6.4-6.5-10.6-8.5c-4.3-2.1-6.1-7.3-4-11.6
	c2.2-4.2,7.4-6.1,11.8-3.9C485.9,472.4,491.6,477,496,482.5z M534.1,388.7c1.9,4.4-0.3,9.4-4.8,11.3c-5.9,2.4-12.2,3.7-18.7,3.7
	h-1.9c-4.8,0-8.8-3.9-8.8-8.6s4-8.6,8.8-8.6h1.9c4.2,0,8.1-0.8,11.9-2.3C527.1,382.3,532.2,384.4,534.1,388.7z M287,274.6
	c-0.2,1.3-0.2,2.6-0.2,3.9c0,3.2,0.5,6.4,1.5,9.4c1.5,4.5-1,9.4-5.5,10.9c-1,0.3-1.8,0.4-2.8,0.4c-3.7,0-7.1-2.3-8.3-6
	c-1.6-4.8-2.4-9.8-2.4-14.9c0-2.1,0.2-4.1,0.3-6c0.6-4.8,4.8-8,9.9-7.5C284.2,265.5,287.6,269.8,287,274.6z M256.7,550.8
	c0,4.8-3.9,8.7-8.8,8.7h-17.6c-4.8,0-8.8-3.9-8.8-8.7c0-4.8,4-8.6,8.8-8.6h17.6C252.8,542.2,256.7,546.1,256.7,550.8z M344.2,473.1
	c-1.5,3.2-4.7,5.1-8,5.1c-1.2,0-2.4-0.3-3.6-0.8c-6.5-2.9-12.3-7.3-16.9-12.6c-3.1-3.6-2.7-9.1,1-12.2s9.3-2.6,12.4,1
	c2.9,3.5,6.7,6.2,10.8,8.1C344.3,463.7,346.2,468.8,344.2,473.1z M309.3,550.8c0,4.8-3.9,8.7-8.8,8.7H283c-4.8,0-8.8-3.9-8.8-8.7
	c0-4.8,3.9-8.6,8.8-8.6h17.6C305.4,542.2,309.3,546.1,309.3,550.8z M534.9,315.1c-6.2-3.5-13.1-5.7-20.3-6.2c-4.8-0.3-9.1,3.2-9.4,8
	c-0.3,4.8,3.2,9,8,9.3c4.6,0.3,9,1.6,12.9,4c1.4,0.8,2.9,1.2,4.4,1.2c3,0,6-1.6,7.6-4.3C540.5,322.7,539.1,317.5,534.9,315.1z
	 M326,404.1c3.9,2.9,4.8,8.3,1.8,12.1c-2.8,3.6-4.6,7.8-5.4,12.2c-0.9,4.2-4.5,7-8.6,7c-0.5,0-1-0.1-1.6-0.2c-4.8-1-7.9-5.4-7-10.1
	c1.4-7,4.2-13.5,8.6-19.2C316.6,402.1,322,401.2,326,404.1z M427.3,239.4c0,4.8-3.9,8.7-8.7,8.7H401c-4.8,0-8.8-3.8-8.8-8.7
	c0-4.8,4-8.6,8.8-8.6h17.5C423.3,230.8,427.3,234.7,427.3,239.4z M464.6,40.5c-21.5,0-41.6,9.3-56.7,25.9
	c-30.5,33.9-30.5,89.1,0,123l56.7,63l56.7-63c30.5-33.9,30.5-89.1,0-123C506.3,49.8,486.1,40.5,464.6,40.5z M508.3,177.9l-43.6,48.4
	L421,177.9c-24.8-27.6-24.8-72.4,0-100c11.7-13,27.2-20.2,43.6-20.2c16.4,0,31.9,7.1,43.7,20.2C533.1,105.5,533.1,150.4,508.3,177.9
	z M466.9,75.1c-26.6,0-48.4,21.4-48.4,47.6s21.6,47.6,48.3,47.6s48.3-21.4,48.3-47.6C515.1,96.5,493.4,75.1,466.9,75.1z
	 M466.9,152.9c-17,0-30.8-13.6-30.8-30.2c0-16.7,13.8-30.3,30.8-30.3s30.8,13.6,30.8,30.3C497.6,139.4,483.7,152.9,466.9,152.9z
	 M146.3,308.6c-29.1,0-52.7,23.3-52.7,51.9c0,28.5,23.6,51.9,52.7,51.9s52.7-23.3,52.7-51.9C199,331.9,175.3,308.6,146.3,308.6z
	 M146.3,395.1c-19.4,0-35.1-15.6-35.1-34.6c0-19.1,15.7-34.6,35.1-34.6s35.1,15.6,35.1,34.6S165.7,395.1,146.3,395.1z M146.3,256.8
	c-28.4,0-55,12.2-74.9,34.3c-40.5,45.2-40.5,118.4,0,163.5l74.9,83.3l74.9-83.3c40.6-45.1,40.6-118.4,0-163.5
	C201.2,268.9,174.6,256.8,146.3,256.8z M208,443.2l-61.7,68.7l-61.8-68.7c-34.9-38.8-34.9-101.8,0-140.5
	c16.5-18.4,38.5-28.5,61.8-28.5s45.2,10.1,61.7,28.5C242.8,341.3,242.8,404.4,208,443.2z M374.6,239.4c0,4.8-4,8.7-8.8,8.7h-17.6
	c-4.8,0-8.8-3.8-8.8-8.7c0-4.8,4-8.6,8.8-8.6h17.6C370.7,230.8,374.6,234.7,374.6,239.4z"/>
</svg>
