<?xml version="1.0" encoding="utf-8"?>
<!-- Generator: Adobe Illustrator 17.1.0, SVG Export Plug-In . SVG Version: 6.00 Build 0)  -->
<!DOCTYPE svg PUBLIC "-//W3C//DTD SVG 1.1//EN" "http://www.w3.org/Graphics/SVG/1.1/DTD/svg11.dtd">
<svg version="1.1" id="Layer_1" xmlns="http://www.w3.org/2000/svg" xmlns:xlink="http://www.w3.org/1999/xlink" x="0px" y="0px"
	 viewBox="0 0 600 600" enable-background="new 0 0 600 600" xml:space="preserve">
<path d="M590.3,262.8L468.5,381.9l28.8,168.4c2,12.1-3,24.4-12.9,31.6c-5.6,4-12.2,6.2-18.8,6.2c-5.1,0-10.3-1.3-15-3.7L300,504.9
	l-150.5,79.5c-10.8,5.7-24,4.7-33.9-2.4c-9.9-7.3-14.9-19.5-12.8-31.6L131.5,382L9.7,262.8c-8.8-8.6-11.9-21.5-8.2-33.1
	c3.8-11.7,13.8-20.2,26-22l168.3-24.5l75.3-153.2c5.4-11.1,16.6-18.1,28.8-18.1s23.4,6.9,28.8,18L404.2,183l168.3,24.6
	c12.1,1.7,22.1,10.3,25.9,22C602.2,241.3,599,254.2,590.3,262.8z"/>
</svg>
