<?xml version="1.0" encoding="utf-8"?>
<!-- Generator: Adobe Illustrator 17.1.0, SVG Export Plug-In . SVG Version: 6.00 Build 0)  -->
<!DOCTYPE svg PUBLIC "-//W3C//DTD SVG 1.1//EN" "http://www.w3.org/Graphics/SVG/1.1/DTD/svg11.dtd">
<svg version="1.1" id="Layer_1" xmlns="http://www.w3.org/2000/svg" xmlns:xlink="http://www.w3.org/1999/xlink" x="0px" y="0px"
	 viewBox="0 0 600 600" enable-background="new 0 0 600 600" xml:space="preserve">
<path d="M598.4,229.6c-3.8-11.8-13.8-20.3-25.9-22L404.2,183L328.8,29.8c-5.4-11.1-16.6-18-28.8-18s-23.4,6.9-28.8,18.1l-75.3,153.2
	L27.6,207.6c-12.2,1.8-22.2,10.3-26,22c-3.8,11.7-0.6,24.5,8.2,33.1L131.5,382l-28.8,168.3c-2.1,12.1,2.9,24.4,12.8,31.6
	c9.9,7.2,23,8.1,33.9,2.4L300,504.9l150.5,79.5c4.7,2.4,9.9,3.7,15,3.7c6.6,0,13.3-2.1,18.8-6.2c9.9-7.3,14.9-19.6,12.9-31.6
	l-28.8-168.4l121.8-119.2C599,254.2,602.2,241.3,598.4,229.6z M548.3,272.1L444.7,373.5l24.5,143.3c1.7,10.3-2.6,20.7-11,26.9
	c-4.7,3.4-10.4,5.2-16,5.2c-4.3,0-8.8-1.1-12.8-3.2l-128.1-67.7l-128.1,67.7c-9.2,4.8-20.4,4-28.8-2.1c-8.4-6.2-12.7-16.6-10.9-26.9
	l24.5-143.2L54.3,272.1c-7.5-7.3-10.2-18.3-6.9-28.2c3.2-9.9,11.8-17.2,22.1-18.7l143.2-20.9l64-130.3c4.6-9.5,14.1-15.4,24.5-15.4
	c10.4,0,19.9,5.9,24.5,15.3l64.1,130.3l143.2,21c10.3,1.5,18.8,8.7,22.1,18.7C558.5,253.8,555.8,264.8,548.3,272.1z"/>
</svg>
