<?xml version="1.0" encoding="utf-8"?>
<!-- Generator: Adobe Illustrator 17.1.0, SVG Export Plug-In . SVG Version: 6.00 Build 0)  -->
<!DOCTYPE svg PUBLIC "-//W3C//DTD SVG 1.1//EN" "http://www.w3.org/Graphics/SVG/1.1/DTD/svg11.dtd">
<svg version="1.1" id="Layer_1" xmlns="http://www.w3.org/2000/svg" xmlns:xlink="http://www.w3.org/1999/xlink" x="0px" y="0px"
	 viewBox="0 0 600 600" enable-background="new 0 0 600 600" xml:space="preserve">
<path fill="#010101" d="M480.9,378.4c-48.6,0-89.2,35-97.6,81H258.6l-9.8-18h99.4c1-0.1,1.9-0.1,2.9-0.2c0.9-0.1,1.9-0.4,2.8-0.6
	c1.8-0.6,3.6-1.4,5.1-2.5c2.1-1.5,2.4-2.1,4.1-3.9l1.6-2.4l33.9-61h150.1c1-0.1,2-0.1,3-0.2c1-0.2,1.9-0.4,2.9-0.7
	c1.9-0.6,3.7-1.5,5.3-2.7c1.6-1.2,3-2.6,4.2-4.2c1.2-1.6,2.1-3.4,2.7-5.3c0.6-1.9,0.9-3.8,0.9-5.8c0-2-0.3-3.9-0.9-5.8
	c-0.3-0.9-0.7-1.9-1.1-2.7c-0.9-1.8-2.1-3.4-3.5-4.8c-1.4-1.4-3-2.6-4.8-3.5c-0.9-0.4-1.8-0.8-2.7-1.1c-0.9-0.3-1.9-0.5-2.9-0.7
	c-1-0.1-2-0.2-3-0.2H387.5c-2.5,0.2-3.2,0.1-5.7,0.9c-0.2,0.1-0.5,0.2-0.7,0.2c-14.4-17.6-56.7-54.1-162.7-58.9
	c-9.5-0.4-17,2.2-22.8,6.8l16-42.2h52.9c1-0.1,2-0.1,3-0.2s1.9-0.4,2.9-0.7c1.9-0.6,3.7-1.5,5.3-2.7c1.6-1.2,3-2.6,4.2-4.2
	c1.2-1.6,2.1-3.4,2.7-5.3c0.3-0.9,0.5-1.9,0.7-2.9c0.3-2,0.3-3.9,0-5.9c-0.3-2-0.9-3.8-1.8-5.6c-0.9-1.8-2.1-3.4-3.5-4.8
	c-1.4-1.4-3-2.6-4.8-3.5c-0.9-0.4-1.8-0.8-2.7-1.1c-0.9-0.3-1.9-0.5-2.9-0.7c-1-0.1-2-0.2-3-0.2h-66c-2.5,0.2-3.2,0.1-5.6,0.9
	c-1.8,0.6-3.5,1.4-5.1,2.5c-1.6,1.1-3,2.4-4.1,3.9c-1.6,2-1.7,2.7-2.8,4.9l-27.6,72.7c-1.7-1.1-3.7-1.9-5.9-2.3
	c-9.1-1.7-21.3-4-31.5-5.9c-4.8-0.9-9.8,0.4-13.6,3.5c-3.8,3.1-6,7.8-6,12.7c0,14.1,0,32.9,0,46.8c0,4.8,2.1,9.4,5.8,12.5
	c3.7,3.1,8.5,4.5,13.3,3.8l11.6-1.8l-9,23.8c-6.1-1.2-12.3-1.8-18.7-1.8c-54.8,0-99.3,44.3-99.3,99s44.5,99,99.3,99
	c54.8,0,99.3-44.3,99.3-99c0-34.9-18.1-65.5-45.5-83.2l10.9-28.9l66.8,122c1.4,2.1,1.6,2.8,3.5,4.6c1.4,1.3,3,2.4,4.7,3.3
	c1.7,0.9,3.6,1.4,5.5,1.7c0.9,0.1,1.9,0.1,2.9,0.2h136.2c9.2,45.2,49.3,79.2,97.3,79.2c54.8,0,99.3-44.3,99.3-99
	S535.7,378.4,480.9,378.4z M168,477.4c0,37.8-30.8,68.5-68.7,68.5s-68.7-30.7-68.7-68.5s30.8-68.5,68.7-68.5c2.6,0,5.2,0.1,7.7,0.4
	l-25.4,66.9c-0.3,0.9-0.6,1.9-0.8,2.8c-0.2,1-0.3,1.9-0.4,2.9c-0.1,2,0.1,4,0.6,5.9c0.5,1.9,1.3,3.7,2.4,5.4c1.1,1.7,2.4,3.1,4,4.4
	c1.5,1.2,3.3,2.2,5.1,2.9c0.9,0.3,1.9,0.6,2.8,0.8c1.9,0.4,3.9,0.5,5.9,0.3c2-0.2,3.9-0.7,5.7-1.6c0.9-0.4,1.8-0.9,2.6-1.4
	c1.7-1.1,3.1-2.4,4.4-4c0.6-0.8,1.1-1.6,1.7-2.4l1.3-2.7l25-65.8C157.8,436.2,168,455.6,168,477.4z M228.1,403.8l-22.2-40.5h153.7
	L337,403.8H228.1z M480.9,545.9c-31.1,0-57.3-20.6-65.8-48.8h70.7c1-0.1,2-0.1,3-0.2c1-0.2,1.9-0.4,2.9-0.7c1.9-0.6,3.7-1.5,5.3-2.7
	c1.6-1.2,3-2.6,4.2-4.2c1.2-1.6,2.1-3.4,2.7-5.3c0.6-1.9,0.9-3.8,0.9-5.8c0-1-0.1-2-0.2-2.9c-0.3-2-0.9-3.8-1.8-5.6
	c-0.9-1.8-2.1-3.4-3.5-4.8c-1.4-1.4-3-2.6-4.8-3.5c-0.9-0.4-1.8-0.8-2.7-1.1c-0.9-0.3-1.9-0.5-2.9-0.7l-3-0.2h-71.2
	c7.9-29.1,34.6-50.6,66.4-50.6c37.9,0,68.7,30.7,68.7,68.5S518.8,545.9,480.9,545.9z M348,73.7c-0.6-2.7,1-5.4,3.7-6
	c2.7-0.6,5.4,1,6,3.7c0.6,2.7-1,5.4-3.7,6C351.3,78.1,348.6,76.4,348,73.7z M315.1,108.5c-0.2,6.6,2.6,12.9,7.8,17
	c5.1,4.2,11.9,5.7,18.3,4.2c15-3.6,33.2-8,43.8-10.5c26.4-6.2,44.8-24.5,40.3-43.4C419.2,50.1,414,14.1,363,26
	c-19.1,4.5-30.7,17.5-37.8,33.1l19.6-1.6c8.8-2.1,17.5,3.4,19.6,12.1c2.1,8.7-3.4,17.5-12.1,19.5l-36.8,13.1
	C315.3,104.5,315.2,106.5,315.1,108.5z M426,148.3c-5.1-19.5-25.1-31.3-44.7-26.2c-19.6,5.1-31.4,25-26.3,44.6l2,7.9l-45,51.6
	l-66.4-17.1c-8.7-2.2-17.7,3-19.9,11.7s3,17.6,11.7,19.8L317,261c8.4,2.2,17-2.7,19.7-10.8c0.3-0.3,0.5-0.5,0.8-0.8l30.1-34.5
	l23,88.4c0.7,2.6,1.6,5,2.8,7.3l-71.2,43.2c-3.5,2.1-6,5.1-7.6,8.5c-0.6,0.9-1.1,1.9-1.6,3l-42.3,101.3c-4,9.5,0.6,20.5,10.1,24.5
	c9.6,4,20.6-0.6,24.6-10.1l40-96l92.1-56c0.3-0.2,0.7-0.4,1-0.7c17.6-6.4,27.7-25.2,22.9-43.5L426,148.3z M595.8,229.8l-48.6-57.6
	v-6.6c0-20.8-17-37.7-37.8-37.7c-20.9,0-37.8,16.9-37.8,37.7v145.6c0,4.6,0.8,8.9,2.3,13l-55.4,33.6c-2.8,1.7-5.3,3.9-7.2,6.4
	c-3.9,1.5-7.3,4.3-9.6,8.2l-54.6,95.3c-5.1,9-2,20.4,7,25.6c9,5.1,20.5,2,25.6-7l45.6-79.6c6.9,1.9,14.6,1.1,21.2-2.9l67.2-40.8
	c6.8-4.1,11.1-10.7,12.5-17.9c12.5-6.2,21.1-19,21.1-33.8v-19.6l46-33.8c4.9-3.6,7.3-9.4,6.8-15.1
	C600.3,238.2,599,233.5,595.8,229.8z M547.2,249.8v-22.6l11.8,13.9L547.2,249.8z M489,68.1c0-2.8,2.3-5.1,5.2-5.1
	c2.8,0,5.2,2.3,5.2,5.1c0,2.8-2.3,5.1-5.2,5.1C491.3,73.2,489,70.9,489,68.1z M449.6,89.1l40-4.5c9.3,0,16.8-7.5,16.8-16.8
	c0-9.3-7.5-16.8-16.8-16.8l-20-3c10.8-14,25.6-24.4,45.8-24.4c54.1,0,50.8,37.5,50.8,64.7c0,20-22.8,34.1-50.8,34.1
	c-11.2,0-30.5,0.1-46.5,0.2c-6.8,0-13.2-3.1-17.4-8.5c-4.2-5.4-5.5-12.4-3.8-18.9C448.3,93.3,448.9,91.2,449.6,89.1z"/>
</svg>
