<?xml version="1.0" encoding="utf-8"?>
<!-- Generator: Adobe Illustrator 17.1.0, SVG Export Plug-In . SVG Version: 6.00 Build 0)  -->
<!DOCTYPE svg PUBLIC "-//W3C//DTD SVG 1.1//EN" "http://www.w3.org/Graphics/SVG/1.1/DTD/svg11.dtd">
<svg version="1.1" id="Layer_1" xmlns="http://www.w3.org/2000/svg" xmlns:xlink="http://www.w3.org/1999/xlink" x="0px" y="0px"
	 viewBox="0 0 600 600" enable-background="new 0 0 600 600" xml:space="preserve">
<path d="M592.9,48.3c-4.2-4-9.7-6.2-15.2-6.5c-1-0.1-1.9-0.1-2.9,0c-2.7,0.2-5.3,0.7-7.8,1.8L15,255c-9.1,3.5-15,12-15,21.4
	c0.1,9.4,6.1,17.8,15.3,21.2L160.4,351l40.6,148.2c2,7.3,7.6,13.1,14.9,15.7c7.4,2.5,15.6,1.4,21.9-3l80.9-56l150.9,98.5
	c4,2.6,8.6,3.9,13.3,3.9c3.1,0,6.2-0.6,9.1-1.7c7.4-2.9,12.7-9.3,14.2-16.8l93.2-470.4c0.2-0.9,0.3-1.7,0.4-2.6
	c0.1-1.2,0.1-2.4,0-3.6c-0.4-4.8-2.3-9.5-5.8-13.4C593.7,49.1,593.3,48.7,592.9,48.3z M215.9,374.1L203.3,328
	c-2-7.1-7.3-12.9-14.5-15.5l-99.7-36.7l383.5-146.8L223.1,360C219,363.7,216.5,368.7,215.9,374.1z M238.2,455.3l-18-65.6
	c1.6,2.2,3.6,4.1,6,5.6l50.8,33.1L238.2,455.3z M466.5,496.9l-134.4-87.7c-0.2-0.1-0.4-0.3-0.6-0.4l-54.3-35.5L539,130.9
	L466.5,496.9z"/>
</svg>
